<?xml version="1.0" encoding="UTF-8"?>
<svg width="375px" height="2856px" viewBox="0 0 375 2856" version="1.1" xmlns="http://www.w3.org/2000/svg" xmlns:xlink="http://www.w3.org/1999/xlink">
    <!-- Generator: Sketch 64 (93537) - https://sketch.com -->
    <title>background_negocios_mov</title>
    <desc>Created with Sketch.</desc>
    <g id="background_negocios_mov" stroke="none" stroke-width="1" fill="none" fill-rule="evenodd">
        <g id="Group" opacity="0.5" transform="translate(-32.000000, 267.000000)">
            <g id="Group-11" transform="translate(0.000000, 1318.000000)"></g>
            <g id="blue_square" transform="translate(55.000000, 0.000000)">
                <g id="Group-20-Copy-3" transform="translate(-3.538462, 0.304762)">
                    <path d="M4.06218333,11.7166792 L4.11571729,3.78771989 L11.6554124,1.71418435e-13 L19.1503108,3.78771989 L19.0967769,11.7166792 L11.5570818,15.5043991 L4.06218333,11.7166792 Z" id="Combined-Shape" fill="#3B65E6"></path>
                    <polygon id="Rectangle" fill="#4D75F1" transform="translate(7.829549, 9.652910) rotate(-45.000000) translate(-7.829549, -9.652910) " points="9.35078927 2.87951908 3.70631416 8.44828574 6.32768524 16.4263017 11.9527831 10.9402643"></polygon>
                    <polygon id="Rectangle" fill="#325DE1" transform="translate(15.382946, 9.675309) rotate(-45.000000) translate(-15.382946, -9.675309) " points="8.55586197 11.0918038 16.5655539 13.744851 22.210029 8.17608429 14.1809599 5.60576645"></polygon>
                </g>
            </g>
            <g id="blue_square" transform="translate(383.000000, 1227.000000)">
                <g id="Group-20-Copy-3" transform="translate(-3.538462, 0.304762)">
                    <path d="M4.06218333,11.7166792 L4.11571729,3.78771989 L11.6554124,1.71418435e-13 L19.1503108,3.78771989 L19.0967769,11.7166792 L11.5570818,15.5043991 L4.06218333,11.7166792 Z" id="Combined-Shape" fill="#3B65E6"></path>
                    <polygon id="Rectangle" fill="#4D75F1" transform="translate(7.829549, 9.652910) rotate(-45.000000) translate(-7.829549, -9.652910) " points="9.35078927 2.87951908 3.70631416 8.44828574 6.32768524 16.4263017 11.9527831 10.9402643"></polygon>
                    <polygon id="Rectangle" fill="#325DE1" transform="translate(15.382946, 9.675309) rotate(-45.000000) translate(-15.382946, -9.675309) " points="8.55586197 11.0918038 16.5655539 13.744851 22.210029 8.17608429 14.1809599 5.60576645"></polygon>
                </g>
            </g>
            <g id="orange_square" transform="translate(391.000000, 320.000000)">
                <g id="Group-20-Copy-2" transform="translate(-3.538462, 0.304762)">
                    <path d="M4.06218333,11.7166792 L4.11571729,3.78771989 L11.6554124,1.69642078e-13 L19.1503108,3.78771989 L19.0967769,11.7166792 L11.5570818,15.5043991 L4.06218333,11.7166792 Z" id="Combined-Shape" fill="#FFA737"></path>
                    <polygon id="Rectangle" fill="#FCAF4C" transform="translate(7.829549, 9.652910) rotate(-45.000000) translate(-7.829549, -9.652910) " points="9.35078927 2.87951908 3.70631416 8.44828574 6.32768524 16.4263017 11.9527831 10.9402643"></polygon>
                    <polygon id="Rectangle" fill="#FB9C24" transform="translate(15.382946, 9.675309) rotate(-45.000000) translate(-15.382946, -9.675309) " points="8.55586197 11.0918038 16.5655539 13.744851 22.210029 8.17608429 14.1809599 5.60576645"></polygon>
                </g>
            </g>
            <g id="orange_square" transform="translate(53.000000, 1539.000000)">
                <g id="Group-20-Copy-2" transform="translate(-3.538462, 0.304762)">
                    <path d="M4.06218333,11.7166792 L4.11571729,3.78771989 L11.6554124,1.69642078e-13 L19.1503108,3.78771989 L19.0967769,11.7166792 L11.5570818,15.5043991 L4.06218333,11.7166792 Z" id="Combined-Shape" fill="#FFA737"></path>
                    <polygon id="Rectangle" fill="#FCAF4C" transform="translate(7.829549, 9.652910) rotate(-45.000000) translate(-7.829549, -9.652910) " points="9.35078927 2.87951908 3.70631416 8.44828574 6.32768524 16.4263017 11.9527831 10.9402643"></polygon>
                    <polygon id="Rectangle" fill="#FB9C24" transform="translate(15.382946, 9.675309) rotate(-45.000000) translate(-15.382946, -9.675309) " points="8.55586197 11.0918038 16.5655539 13.744851 22.210029 8.17608429 14.1809599 5.60576645"></polygon>
                </g>
            </g>
            <g id="yellow_square" transform="translate(32.000000, 977.000000)">
                <g id="Group-20" transform="translate(-3.538462, 0.304762)">
                    <path d="M4.06218333,11.7166792 L4.11571729,3.78771989 L11.6554124,1.72750703e-13 L19.1503108,3.78771989 L19.0967769,11.7166792 L11.5570818,15.5043991 L4.06218333,11.7166792 Z" id="Combined-Shape" fill="#FFD24F"></path>
                    <polygon id="Rectangle" fill="#FBD874" transform="translate(7.829549, 9.652910) rotate(-45.000000) translate(-7.829549, -9.652910) " points="9.35078927 2.87951908 3.70631416 8.44828574 6.32768524 16.4263017 11.9527831 10.9402643"></polygon>
                    <polygon id="Rectangle" fill="#F6C73E" transform="translate(15.382946, 9.675309) rotate(-45.000000) translate(-15.382946, -9.675309) " points="8.55586197 11.0918038 16.5655539 13.744851 22.210029 8.17608429 14.1809599 5.60576645"></polygon>
                </g>
            </g>
            <g id="green_square" transform="translate(39.000000, 531.000000)">
                <g id="Group-20-Copy" transform="translate(-3.538462, 0.304762)">
                    <path d="M4.06218333,11.7166792 L4.11571729,3.78771989 L11.6554124,1.76747506e-13 L19.1503108,3.78771989 L19.0967769,11.7166792 L11.5570818,15.5043991 L4.06218333,11.7166792 Z" id="Combined-Shape" fill="#1CD6BF"></path>
                    <polygon id="Rectangle" fill="#1DE0C8" transform="translate(7.829549, 9.652910) rotate(-45.000000) translate(-7.829549, -9.652910) " points="9.35078927 2.87951908 3.70631416 8.44828574 6.32768524 16.4263017 11.9527831 10.9402643"></polygon>
                    <polygon id="Rectangle" fill="#0BCDB5" transform="translate(15.382946, 9.675309) rotate(-45.000000) translate(-15.382946, -9.675309) " points="8.55586197 11.0918038 16.5655539 13.744851 22.210029 8.17608429 14.1809599 5.60576645"></polygon>
                </g>
            </g>
            <g id="green_square" transform="translate(70.000000, 1853.000000)">
                <g id="Group-20-Copy" transform="translate(-3.538462, 0.304762)">
                    <path d="M4.06218333,11.7166792 L4.11571729,3.78771989 L11.6554124,1.76747506e-13 L19.1503108,3.78771989 L19.0967769,11.7166792 L11.5570818,15.5043991 L4.06218333,11.7166792 Z" id="Combined-Shape" fill="#1CD6BF"></path>
                    <polygon id="Rectangle" fill="#1DE0C8" transform="translate(7.829549, 9.652910) rotate(-45.000000) translate(-7.829549, -9.652910) " points="9.35078927 2.87951908 3.70631416 8.44828574 6.32768524 16.4263017 11.9527831 10.9402643"></polygon>
                    <polygon id="Rectangle" fill="#0BCDB5" transform="translate(15.382946, 9.675309) rotate(-45.000000) translate(-15.382946, -9.675309) " points="8.55586197 11.0918038 16.5655539 13.744851 22.210029 8.17608429 14.1809599 5.60576645"></polygon>
                </g>
            </g>
            <g id="yellow_square" transform="translate(375.000000, 2335.000000)">
                <g id="Group-20" transform="translate(-3.538462, 0.304762)">
                    <path d="M4.06218333,11.7166792 L4.11571729,3.78771989 L11.6554124,1.72750703e-13 L19.1503108,3.78771989 L19.0967769,11.7166792 L11.5570818,15.5043991 L4.06218333,11.7166792 Z" id="Combined-Shape" fill="#FFD24F"></path>
                    <polygon id="Rectangle" fill="#FBD874" transform="translate(7.829549, 9.652910) rotate(-45.000000) translate(-7.829549, -9.652910) " points="9.35078927 2.87951908 3.70631416 8.44828574 6.32768524 16.4263017 11.9527831 10.9402643"></polygon>
                    <polygon id="Rectangle" fill="#F6C73E" transform="translate(15.382946, 9.675309) rotate(-45.000000) translate(-15.382946, -9.675309) " points="8.55586197 11.0918038 16.5655539 13.744851 22.210029 8.17608429 14.1809599 5.60576645"></polygon>
                </g>
            </g>
        </g>
        <g id="Background" transform="translate(99.000000, 33.000000)">
            <path d="M23.7639939,47 C25.7609682,47 27.813414,46.7606481 29.9213313,46.2819444 C32.0292486,45.8032407 34.0040343,45.1069444 35.8456884,44.1930556 C37.6873424,43.2791667 39.329299,42.1476852 40.7715582,40.7986111 C42.2138174,39.449537 43.2899647,37.9263889 44,36.2291667 L44,36.2291667 L33.4160363,30.0277778 C33.0166415,31.0722222 32.4730207,31.9534722 31.785174,32.6715278 C31.0973273,33.3895833 30.3207262,33.9770833 29.4553707,34.4340278 C28.5900151,34.8909722 27.6913767,35.2173611 26.7594554,35.4131944 C25.827534,35.6090278 24.9178013,35.7069444 24.0302572,35.7069444 C22.3439233,35.7069444 20.824004,35.3696759 19.4704992,34.6951389 C18.1169945,34.0206019 16.9742814,33.1175926 16.0423601,31.9861111 C15.1104387,30.8546296 14.4004034,29.5490741 13.9122542,28.0694444 C13.4241049,26.5898148 13.1800303,25.0449074 13.1800303,23.4347222 C13.1800303,21.9986111 13.390822,20.5516204 13.8124054,19.09375 C14.2339889,17.6358796 14.8774584,16.3303241 15.7428139,15.1770833 C16.6081694,14.0238426 17.7175996,13.0881944 19.0711044,12.3701389 C20.4246092,11.6520833 22.0332829,11.2930556 23.8971256,11.2930556 C24.7846697,11.2930556 25.7054967,11.3800926 26.6596067,11.5541667 C27.6137166,11.7282407 28.5345436,12.0328704 29.4220877,12.4680556 C30.3096319,12.9032407 31.1195159,13.4907407 31.8517398,14.2305556 C32.5839637,14.9703704 33.1719617,15.9060185 33.6157337,17.0375 L33.6157337,17.0375 L43.5340393,10.1180556 C41.8920827,7.07175926 39.3958649,4.62384259 36.0453858,2.77430556 C32.6949067,0.924768519 28.734241,0 24.1633888,0 C20.3469491,0 16.9520928,0.674537037 13.97882,2.02361111 C11.0055472,3.37268519 8.47604639,5.13518519 6.3903177,7.31111111 C4.30458901,9.48703704 2.71810388,11.9458333 1.63086233,14.6875 C0.543620777,17.4291667 0,20.2143519 0,23.0430556 C0,26.0023148 0.576903681,28.9180556 1.73071104,31.7902778 C2.88451841,34.6625 4.51538074,37.2300926 6.62329803,39.4930556 C8.73121533,41.7560185 11.2385275,43.5729167 14.1452345,44.94375 C17.0519415,46.3145833 20.2581947,47 23.7639939,47 Z M69.4022191,47 C72.8354138,47 75.9969949,46.3472222 78.8869626,45.0416667 C81.7769302,43.7361111 84.2649098,42.00625 86.3509015,39.8520833 C88.4368932,37.6979167 90.0665742,35.2173611 91.2399445,32.4104167 C92.4133148,29.6034722 93,26.6768519 93,23.6305556 C93,20.6712963 92.4459085,17.7773148 91.3377254,14.9486111 C90.2295423,12.1199074 88.654184,9.59583333 86.6116505,7.37638889 C84.569117,5.15694444 82.1137309,3.37268519 79.2454924,2.02361111 C76.3772538,0.674537037 73.1830791,0 69.6629681,0 C66.2297735,0 63.0681923,0.641898148 60.1782247,1.92569444 C57.2882571,3.20949074 54.7894129,4.92847222 52.6816921,7.08263889 C50.5739713,9.23680556 48.9334258,11.7282407 47.7600555,14.5569444 C46.5866852,17.3856481 46,20.3231481 46,23.3694444 C46,26.3722222 46.5649561,29.287963 47.6948682,32.1166667 C48.8247804,34.9453704 50.4110032,37.4585648 52.4535368,39.65625 C54.4960703,41.8539352 56.9514563,43.6273148 59.8196949,44.9763889 C62.6879334,46.325463 65.8821082,47 69.4022191,47 Z M69.0338462,36 C67.1384615,36 65.5025641,35.657754 64.1261538,34.973262 C62.7497436,34.2887701 61.6102564,33.3903743 60.7076923,32.2780749 C59.8051282,31.1657754 59.1282051,29.8930481 58.6769231,28.459893 C58.225641,27.026738 58,25.540107 58,24 C58,22.5026738 58.214359,21.0374332 58.6430769,19.6042781 C59.0717949,18.171123 59.7374359,16.8877005 60.64,15.7540107 C61.5425641,14.6203209 62.6820513,13.7112299 64.0584615,13.026738 C65.4348718,12.342246 67.0707692,12 68.9661538,12 C70.8164103,12 72.4297436,12.3315508 73.8061538,12.9946524 C75.1825641,13.657754 76.3333333,14.5347594 77.2584615,15.6256684 C78.1835897,16.7165775 78.8717949,17.9786096 79.3230769,19.4117647 C79.774359,20.8449198 80,22.3315508 80,23.8716578 C80,25.368984 79.785641,26.8449198 79.3569231,28.2994652 C78.9282051,29.7540107 78.2738462,31.0481283 77.3938462,32.1818182 C76.5138462,33.315508 75.374359,34.2352941 73.9753846,34.9411765 C72.5764103,35.6470588 70.9292308,36 69.0338462,36 Z M110.958861,47 L110.958861,24.3887324 L129.699367,47 L140,47 L140,1 L127.041139,1 L127.041139,24.3887324 L108.101266,1 L98,1 L98,47 L110.958861,47 Z M181,47 L181,35.9859155 L160.717391,35.9859155 L160.717391,28.7295775 L177.543478,28.7295775 L177.543478,18.4929577 L160.717391,18.4929577 L160.717391,12.0140845 L180.413043,12.0140845 L180.413043,1 L148,1 L148,47 L181,47 Z M206.763994,47 C208.760968,47 210.813414,46.7606481 212.921331,46.2819444 C215.029249,45.8032407 217.004034,45.1069444 218.845688,44.1930556 C220.687342,43.2791667 222.329299,42.1476852 223.771558,40.7986111 C225.213817,39.449537 226.289965,37.9263889 227,36.2291667 L227,36.2291667 L216.416036,30.0277778 C216.016641,31.0722222 215.473021,31.9534722 214.785174,32.6715278 C214.097327,33.3895833 213.320726,33.9770833 212.455371,34.4340278 C211.590015,34.8909722 210.691377,35.2173611 209.759455,35.4131944 C208.827534,35.6090278 207.917801,35.7069444 207.030257,35.7069444 C205.343923,35.7069444 203.824004,35.3696759 202.470499,34.6951389 C201.116994,34.0206019 199.974281,33.1175926 199.04236,31.9861111 C198.110439,30.8546296 197.400403,29.5490741 196.912254,28.0694444 C196.424105,26.5898148 196.18003,25.0449074 196.18003,23.4347222 C196.18003,21.9986111 196.390822,20.5516204 196.812405,19.09375 C197.233989,17.6358796 197.877458,16.3303241 198.742814,15.1770833 C199.608169,14.0238426 200.7176,13.0881944 202.071104,12.3701389 C203.424609,11.6520833 205.033283,11.2930556 206.897126,11.2930556 C207.78467,11.2930556 208.705497,11.3800926 209.659607,11.5541667 C210.613717,11.7282407 211.534544,12.0328704 212.422088,12.4680556 C213.309632,12.9032407 214.119516,13.4907407 214.85174,14.2305556 C215.583964,14.9703704 216.171962,15.9060185 216.615734,17.0375 L216.615734,17.0375 L226.534039,10.1180556 C224.892083,7.07175926 222.395865,4.62384259 219.045386,2.77430556 C215.694907,0.924768519 211.734241,0 207.163389,0 C203.346949,0 199.952093,0.674537037 196.97882,2.02361111 C194.005547,3.37268519 191.476046,5.13518519 189.390318,7.31111111 C187.304589,9.48703704 185.718104,11.9458333 184.630862,14.6875 C183.543621,17.4291667 183,20.2143519 183,23.0430556 C183,26.0023148 183.576904,28.9180556 184.730711,31.7902778 C185.884518,34.6625 187.515381,37.2300926 189.623298,39.4930556 C191.731215,41.7560185 194.238527,43.5729167 197.145234,44.94375 C200.051942,46.3145833 203.258195,47 206.763994,47 Z M254.490066,47 L254.490066,12.0140845 L268,12.0140845 L268,1 L228,1 L228,12.0140845 L241.576159,12.0140845 L241.576159,47 L254.490066,47 Z M278.04918,47 L280.803279,37.9943662 L293.196721,37.9943662 L296.016393,47 L309,47 L292.868852,1 L281.196721,1 L265,47 L278.04918,47 Z M291,29 L282,29 L286.604651,14 L291,29 Z" id="CONECTA" stroke="#F0F2FD" fill-rule="nonzero"></path>
            <g id="orange_outline" opacity="0.2" transform="translate(34.000000, 310.000000)" stroke="#FB9C24">
                <g id="Group-14">
                    <path d="M-1.50705742e-12,58.1889239 L0.262558284,18.8110761 L37.2411322,3.93561726e-13 L74,18.8110761 L73.7374417,58.1889239 L36.7588678,77 L-1.50705742e-12,58.1889239 Z" id="Combined-Shape" fill="#FFFFFF"></path>
                    <polyline id="Line-8" stroke-linecap="square" points="36.8062827 76.2222222 36.8062827 38.0603865 73.6125654 18.6666667"></polyline>
                    <line x1="0.77486911" y1="18.6666667" x2="36.6125654" y2="37.9166667" id="Line-9" stroke-linecap="square"></line>
                </g>
            </g>
            <line x1="92.1948718" y1="357.192683" x2="243.805128" y2="435.807317" id="Line-13" stroke="#F0F2FD" stroke-linecap="square"></line>
            <g id="blue_outline" opacity="0.1" transform="translate(235.000000, 422.000000)" stroke="#3B65E6">
                <path d="M-1.50705742e-12,58.1889239 L0.262558284,18.8110761 L37.2411322,3.93561726e-13 L74,18.8110761 L73.7374417,58.1889239 L36.7588678,77 L-1.50705742e-12,58.1889239 Z" id="Combined-Shape-Copy-2" fill="#FFFFFF" fill-rule="evenodd"></path>
                <polyline id="Line-8-Copy-2" stroke-linecap="square" points="36.8062827 76.2222222 36.8062827 38.0603865 73.6125654 18.6666667"></polyline>
                <line x1="0.77486911" y1="18.6666667" x2="36.6125654" y2="37.9166667" id="Line-9-Copy-2" stroke-linecap="square"></line>
            </g>
        </g>
        <rect id="Rectangle" fill="#F0F2FD" transform="translate(341.500000, 936.500000) rotate(-45.000000) translate(-341.500000, -936.500000) " x="255" y="850" width="173" height="173" rx="54"></rect>
        <g id="Gratis-Copy-3" transform="translate(-11.000000, 1380.000000)" fill-rule="nonzero" stroke="#F0F2FD">
            <g id="Background">
                <path d="M23.9379397,48 C25.9495313,48 28.0170004,47.7555556 30.140347,47.2666667 C32.2636937,46.7777778 34.2529342,46.0666667 36.1080687,45.1333333 C37.9632031,44.2 39.6171784,43.0444444 41.0699946,41.6666667 C42.5228107,40.2888889 43.606835,38.7333333 44.3220676,37 L44.3220676,37 L33.6606323,30.6666667 C33.258314,31.7333333 32.710714,32.6333333 32.0178325,33.3666667 C31.3249509,34.1 30.5426653,34.7 29.6709757,35.1666667 C28.799286,35.6333333 27.8940698,35.9666667 26.955327,36.1666667 C26.0165843,36.3666667 25.1001926,36.4666667 24.2061519,36.4666667 C22.5074746,36.4666667 20.9764299,36.1222222 19.6130178,35.4333333 C18.2496057,34.7444444 17.0985283,33.8222222 16.1597856,32.6666667 C15.2210429,31.5111111 14.5058103,30.1777778 14.0140879,28.6666667 C13.5223656,27.1555556 13.2765044,25.5777778 13.2765044,23.9333333 C13.2765044,22.4666667 13.488839,20.9888889 13.9135084,19.5 C14.3381777,18.0111111 14.9863572,16.6777778 15.8580469,15.5 C16.7297366,14.3222222 17.8472874,13.3666667 19.2106995,12.6333333 C20.5741116,11.9 22.1945603,11.5333333 24.0720458,11.5333333 C24.9660865,11.5333333 25.8936537,11.6222222 26.8547475,11.8 C27.8158412,11.9777778 28.7434084,12.2888889 29.6374491,12.7333333 C30.5314898,13.1777778 31.347302,13.7777778 32.0848855,14.5333333 C32.8224691,15.2888889 33.4147711,16.2444444 33.8617914,17.4 L33.8617914,17.4 L43.8526962,10.3333333 C42.1987209,7.22222222 39.6842315,4.72222222 36.3092278,2.83333333 C32.9342242,0.944444444 28.9445676,0 24.340258,0 C20.495883,0 17.0761773,0.688888889 14.081141,2.06666667 C11.0861047,3.44444444 8.53808866,5.24444444 6.43709302,7.46666667 C4.33609738,9.68888889 2.73799964,12.2 1.64279978,15 C0.547599927,17.8 0,20.6444444 0,23.5333333 C0,26.5555556 0.581126454,29.5333333 1.74337936,32.4666667 C2.90563227,35.4 4.54843205,38.0222222 6.67177871,40.3333333 C8.79512536,42.6444444 11.3207903,44.5 14.2487736,45.9 C17.1767569,47.3 20.4064789,48 23.9379397,48 Z M70.1286263,48 C73.6398052,48 76.8732009,47.3333333 79.8288135,46 C82.7844261,44.6666667 85.3289197,42.9 87.4622942,40.7 C89.5956687,38.5 91.2623675,35.9666667 92.4623907,33.1 C93.6624139,30.2333333 94.2624254,27.2444444 94.2624254,24.1333333 C94.2624254,21.1111111 93.6957478,18.1555556 92.5623926,15.2666667 C91.4290374,12.3777778 89.8178952,9.8 87.728966,7.53333333 C85.6400368,5.26666667 83.1288772,3.44444444 80.1954873,2.06666667 C77.2620973,0.688888889 73.9953676,0 70.3952981,0 C66.8841192,0 63.6507235,0.655555556 60.6951109,1.96666667 C57.7394983,3.27777778 55.1838934,5.03333333 53.0282962,7.23333333 C50.8726991,9.43333333 49.1948889,11.9777778 47.9948658,14.8666667 C46.7948426,17.7555556 46.194831,20.7555556 46.194831,23.8666667 C46.194831,26.9333333 46.7726199,29.9111111 47.9281978,32.8 C49.0837757,35.6888889 50.7060292,38.2555556 52.7949584,40.5 C54.8838876,42.7444444 57.3950472,44.5555556 60.3284371,45.9333333 C63.2618271,47.3111111 66.5285568,48 70.1286263,48 Z M70.2622419,36.7792208 C68.3798746,36.7792208 66.7552123,36.4236405 65.3882551,35.71248 C64.0212979,35.0013195 62.8896365,34.0679214 61.9932711,32.9122856 C61.0969057,31.7566498 60.4246317,30.4343357 59.976449,28.9453434 C59.5282663,27.4563511 59.304175,25.9117994 59.304175,24.3116883 C59.304175,22.7560247 59.5170617,21.2336968 59.9428353,19.7447045 C60.3686089,18.2557122 61.0296783,16.9222863 61.9260437,15.7444267 C62.8224091,14.5665671 63.9540704,13.6220571 65.3210277,12.9108966 C66.6879849,12.1997361 68.3126472,11.8441558 70.1950145,11.8441558 C72.0325636,11.8441558 73.6348167,12.1886242 75.001774,12.8775609 C76.3687312,13.5664977 77.5115971,14.4776721 78.4303716,15.6110841 C79.3491461,16.7444961 80.0326248,18.0556983 80.4808075,19.5446906 C80.9289902,21.0336829 81.1530815,22.5782346 81.1530815,24.1783457 C81.1530815,25.7340093 80.9401947,27.2674491 80.5144212,28.7786652 C80.0886476,30.2898812 79.4387827,31.6344191 78.5648264,32.8122786 C77.6908702,33.9901382 76.5592088,34.9457601 75.1698425,35.6791444 C73.7804761,36.4125286 72.1446093,36.7792208 70.2622419,36.7792208 Z M112.353952,48 L112.353952,24.7120541 L131.294939,48 L141.705765,48 L141.705765,0.623376623 L128.608274,0.623376623 L128.608274,24.7120541 L109.465788,0.623376623 L99.2564612,0.623376623 L99.2564612,48 L112.353952,48 Z M184.15507,48 L184.15507,36.6563014 L163.436236,36.6563014 L163.436236,29.1828059 L180.624207,29.1828059 L180.624207,18.639839 L163.436236,18.639839 L163.436236,11.9670752 L183.555489,11.9670752 L183.555489,0.623376623 L150.445328,0.623376623 L150.445328,48 L184.15507,48 Z M210.590027,48 C212.601619,48 214.669088,47.7555556 216.792435,47.2666667 C218.915781,46.7777778 220.905022,46.0666667 222.760156,45.1333333 C224.615291,44.2 226.269266,43.0444444 227.722082,41.6666667 C229.174898,40.2888889 230.258923,38.7333333 230.974155,37 L230.974155,37 L220.31272,30.6666667 C219.910401,31.7333333 219.362802,32.6333333 218.66992,33.3666667 C217.977038,34.1 217.194753,34.7 216.323063,35.1666667 C215.451373,35.6333333 214.546157,35.9666667 213.607415,36.1666667 C212.668672,36.3666667 211.75228,36.4666667 210.858239,36.4666667 C209.159562,36.4666667 207.628517,36.1222222 206.265105,35.4333333 C204.901693,34.7444444 203.750616,33.8222222 202.811873,32.6666667 C201.87313,31.5111111 201.157898,30.1777778 200.666175,28.6666667 C200.174453,27.1555556 199.928592,25.5777778 199.928592,23.9333333 C199.928592,22.4666667 200.140927,20.9888889 200.565596,19.5 C200.990265,18.0111111 201.638445,16.6777778 202.510134,15.5 C203.381824,14.3222222 204.499375,13.3666667 205.862787,12.6333333 C207.226199,11.9 208.846648,11.5333333 210.724133,11.5333333 C211.618174,11.5333333 212.545741,11.6222222 213.506835,11.8 C214.467929,11.9777778 215.395496,12.2888889 216.289537,12.7333333 C217.183577,13.1777778 217.999389,13.7777778 218.736973,14.5333333 C219.474557,15.2888889 220.066859,16.2444444 220.513879,17.4 L220.513879,17.4 L230.504784,10.3333333 C228.850808,7.22222222 226.336319,4.72222222 222.961315,2.83333333 C219.586312,0.944444444 215.596655,0 210.992345,0 C207.14797,0 203.728265,0.688888889 200.733228,2.06666667 C197.738192,3.44444444 195.190176,5.24444444 193.08918,7.46666667 C190.988185,9.68888889 189.390087,12.2 188.294887,15 C187.199687,17.8 186.652087,20.6444444 186.652087,23.5333333 C186.652087,26.5555556 187.233214,29.5333333 188.395467,32.4666667 C189.55772,35.4 191.20052,38.0222222 193.323866,40.3333333 C195.447213,42.6444444 197.972878,44.5 200.900861,45.9 C203.828844,47.3 207.058566,48 210.590027,48 Z M259.094545,48 L259.094545,11.9670752 L272.799205,11.9670752 L272.799205,0.623376623 L232.222664,0.623376623 L232.222664,11.9670752 L245.994503,11.9670752 L245.994503,48 L259.094545,48 Z M282.383511,48 L285.196843,38.7248582 L297.856835,38.7248582 L300.737151,48 L314,48 L297.521915,0.623376623 L285.598747,0.623376623 L269.053678,48 L282.383511,48 Z M295.89662,29.9220779 L287.157058,29.9220779 L291.628462,14.961039 L295.89662,29.9220779 Z" id="CONECTA"></path>
            </g>
        </g>
        <g id="orange_outline" opacity="0.2" transform="translate(-11.000000, 1565.000000)" stroke="#FB9C24">
            <g id="Group-14">
                <path d="M-2.26118135e-12,89.1726365 L0.400933596,28.8273635 L56.8682154,5.82357955e-13 L113,28.8273635 L112.599066,89.1726365 L56.1317846,118 L-2.26118135e-12,89.1726365 Z" id="Combined-Shape" fill="#FFFFFF"></path>
                <polyline id="Line-8" stroke-linecap="square" points="56.2041885 116.808081 56.2041885 58.3263065 112.408377 28.6060606"></polyline>
                <line x1="1.18324607" y1="28.6060606" x2="55.908377" y2="58.1060606" id="Line-9" stroke-linecap="square"></line>
            </g>
        </g>
        <line x1="78.2948718" y1="1637.29268" x2="307.705128" y2="1756.70732" id="Line-13" stroke="#F0F2FD" stroke-linecap="square"></line>
        <g id="blue_outline" opacity="0.1" transform="translate(293.000000, 1734.000000)" stroke="#3B65E6">
            <path d="M-2.33283085e-12,89.1726365 L0.408029766,28.8273635 L57.8747324,6.00121524e-13 L115,28.8273635 L114.59197,89.1726365 L57.1252676,118 L-2.33283085e-12,89.1726365 Z" id="Combined-Shape-Copy-2" fill="#FFFFFF" fill-rule="evenodd"></path>
            <polyline id="Line-8-Copy-2" stroke-linecap="square" points="57.1989529 116.808081 57.1989529 58.3263065 114.397906 28.6060606"></polyline>
            <line x1="1.20418848" y1="28.6060606" x2="56.8979058" y2="58.1060606" id="Line-9-Copy-2" stroke-linecap="square"></line>
        </g>
    </g>
</svg>