<?xml version="1.0" encoding="UTF-8"?>
<svg width="375px" height="2160px" viewBox="0 0 375 2160" version="1.1" xmlns="http://www.w3.org/2000/svg" xmlns:xlink="http://www.w3.org/1999/xlink">
    <title>bg_feed_mov</title>
    <g id="bg_feed_mov" stroke="none" stroke-width="1" fill="none" fill-rule="evenodd">
        <g id="Group" opacity="0.5" transform="translate(-32.000000, 1585.000000)">
            <g id="Group-11"></g>
        </g>
        <g id="Background" transform="translate(66.000000, 0.000000)" fill-rule="nonzero" stroke="#FFFFFF">
            <path d="M23.7639939,47 C25.7609682,47 27.813414,46.7606481 29.9213313,46.2819444 C32.0292486,45.8032407 34.0040343,45.1069444 35.8456884,44.1930556 C37.6873424,43.2791667 39.329299,42.1476852 40.7715582,40.7986111 C42.2138174,39.449537 43.2899647,37.9263889 44,36.2291667 L44,36.2291667 L33.4160363,30.0277778 C33.0166415,31.0722222 32.4730207,31.9534722 31.785174,32.6715278 C31.0973273,33.3895833 30.3207262,33.9770833 29.4553707,34.4340278 C28.5900151,34.8909722 27.6913767,35.2173611 26.7594554,35.4131944 C25.827534,35.6090278 24.9178013,35.7069444 24.0302572,35.7069444 C22.3439233,35.7069444 20.824004,35.3696759 19.4704992,34.6951389 C18.1169945,34.0206019 16.9742814,33.1175926 16.0423601,31.9861111 C15.1104387,30.8546296 14.4004034,29.5490741 13.9122542,28.0694444 C13.4241049,26.5898148 13.1800303,25.0449074 13.1800303,23.4347222 C13.1800303,21.9986111 13.390822,20.5516204 13.8124054,19.09375 C14.2339889,17.6358796 14.8774584,16.3303241 15.7428139,15.1770833 C16.6081694,14.0238426 17.7175996,13.0881944 19.0711044,12.3701389 C20.4246092,11.6520833 22.0332829,11.2930556 23.8971256,11.2930556 C24.7846697,11.2930556 25.7054967,11.3800926 26.6596067,11.5541667 C27.6137166,11.7282407 28.5345436,12.0328704 29.4220877,12.4680556 C30.3096319,12.9032407 31.1195159,13.4907407 31.8517398,14.2305556 C32.5839637,14.9703704 33.1719617,15.9060185 33.6157337,17.0375 L33.6157337,17.0375 L43.5340393,10.1180556 C41.8920827,7.07175926 39.3958649,4.62384259 36.0453858,2.77430556 C32.6949067,0.924768519 28.734241,0 24.1633888,0 C20.3469491,0 16.9520928,0.674537037 13.97882,2.02361111 C11.0055472,3.37268519 8.47604639,5.13518519 6.3903177,7.31111111 C4.30458901,9.48703704 2.71810388,11.9458333 1.63086233,14.6875 C0.543620777,17.4291667 0,20.2143519 0,23.0430556 C0,26.0023148 0.576903681,28.9180556 1.73071104,31.7902778 C2.88451841,34.6625 4.51538074,37.2300926 6.62329803,39.4930556 C8.73121533,41.7560185 11.2385275,43.5729167 14.1452345,44.94375 C17.0519415,46.3145833 20.2581947,47 23.7639939,47 Z M69.4022191,47 C72.8354138,47 75.9969949,46.3472222 78.8869626,45.0416667 C81.7769302,43.7361111 84.2649098,42.00625 86.3509015,39.8520833 C88.4368932,37.6979167 90.0665742,35.2173611 91.2399445,32.4104167 C92.4133148,29.6034722 93,26.6768519 93,23.6305556 C93,20.6712963 92.4459085,17.7773148 91.3377254,14.9486111 C90.2295423,12.1199074 88.654184,9.59583333 86.6116505,7.37638889 C84.569117,5.15694444 82.1137309,3.37268519 79.2454924,2.02361111 C76.3772538,0.674537037 73.1830791,0 69.6629681,0 C66.2297735,0 63.0681923,0.641898148 60.1782247,1.92569444 C57.2882571,3.20949074 54.7894129,4.92847222 52.6816921,7.08263889 C50.5739713,9.23680556 48.9334258,11.7282407 47.7600555,14.5569444 C46.5866852,17.3856481 46,20.3231481 46,23.3694444 C46,26.3722222 46.5649561,29.287963 47.6948682,32.1166667 C48.8247804,34.9453704 50.4110032,37.4585648 52.4535368,39.65625 C54.4960703,41.8539352 56.9514563,43.6273148 59.8196949,44.9763889 C62.6879334,46.325463 65.8821082,47 69.4022191,47 Z M69.0338462,36 C67.1384615,36 65.5025641,35.657754 64.1261538,34.973262 C62.7497436,34.2887701 61.6102564,33.3903743 60.7076923,32.2780749 C59.8051282,31.1657754 59.1282051,29.8930481 58.6769231,28.459893 C58.225641,27.026738 58,25.540107 58,24 C58,22.5026738 58.214359,21.0374332 58.6430769,19.6042781 C59.0717949,18.171123 59.7374359,16.8877005 60.64,15.7540107 C61.5425641,14.6203209 62.6820513,13.7112299 64.0584615,13.026738 C65.4348718,12.342246 67.0707692,12 68.9661538,12 C70.8164103,12 72.4297436,12.3315508 73.8061538,12.9946524 C75.1825641,13.657754 76.3333333,14.5347594 77.2584615,15.6256684 C78.1835897,16.7165775 78.8717949,17.9786096 79.3230769,19.4117647 C79.774359,20.8449198 80,22.3315508 80,23.8716578 C80,25.368984 79.785641,26.8449198 79.3569231,28.2994652 C78.9282051,29.7540107 78.2738462,31.0481283 77.3938462,32.1818182 C76.5138462,33.315508 75.374359,34.2352941 73.9753846,34.9411765 C72.5764103,35.6470588 70.9292308,36 69.0338462,36 Z M110.958861,47 L110.958861,24.3887324 L129.699367,47 L140,47 L140,1 L127.041139,1 L127.041139,24.3887324 L108.101266,1 L98,1 L98,47 L110.958861,47 Z M181,47 L181,35.9859155 L160.717391,35.9859155 L160.717391,28.7295775 L177.543478,28.7295775 L177.543478,18.4929577 L160.717391,18.4929577 L160.717391,12.0140845 L180.413043,12.0140845 L180.413043,1 L148,1 L148,47 L181,47 Z M206.763994,47 C208.760968,47 210.813414,46.7606481 212.921331,46.2819444 C215.029249,45.8032407 217.004034,45.1069444 218.845688,44.1930556 C220.687342,43.2791667 222.329299,42.1476852 223.771558,40.7986111 C225.213817,39.449537 226.289965,37.9263889 227,36.2291667 L227,36.2291667 L216.416036,30.0277778 C216.016641,31.0722222 215.473021,31.9534722 214.785174,32.6715278 C214.097327,33.3895833 213.320726,33.9770833 212.455371,34.4340278 C211.590015,34.8909722 210.691377,35.2173611 209.759455,35.4131944 C208.827534,35.6090278 207.917801,35.7069444 207.030257,35.7069444 C205.343923,35.7069444 203.824004,35.3696759 202.470499,34.6951389 C201.116994,34.0206019 199.974281,33.1175926 199.04236,31.9861111 C198.110439,30.8546296 197.400403,29.5490741 196.912254,28.0694444 C196.424105,26.5898148 196.18003,25.0449074 196.18003,23.4347222 C196.18003,21.9986111 196.390822,20.5516204 196.812405,19.09375 C197.233989,17.6358796 197.877458,16.3303241 198.742814,15.1770833 C199.608169,14.0238426 200.7176,13.0881944 202.071104,12.3701389 C203.424609,11.6520833 205.033283,11.2930556 206.897126,11.2930556 C207.78467,11.2930556 208.705497,11.3800926 209.659607,11.5541667 C210.613717,11.7282407 211.534544,12.0328704 212.422088,12.4680556 C213.309632,12.9032407 214.119516,13.4907407 214.85174,14.2305556 C215.583964,14.9703704 216.171962,15.9060185 216.615734,17.0375 L216.615734,17.0375 L226.534039,10.1180556 C224.892083,7.07175926 222.395865,4.62384259 219.045386,2.77430556 C215.694907,0.924768519 211.734241,0 207.163389,0 C203.346949,0 199.952093,0.674537037 196.97882,2.02361111 C194.005547,3.37268519 191.476046,5.13518519 189.390318,7.31111111 C187.304589,9.48703704 185.718104,11.9458333 184.630862,14.6875 C183.543621,17.4291667 183,20.2143519 183,23.0430556 C183,26.0023148 183.576904,28.9180556 184.730711,31.7902778 C185.884518,34.6625 187.515381,37.2300926 189.623298,39.4930556 C191.731215,41.7560185 194.238527,43.5729167 197.145234,44.94375 C200.051942,46.3145833 203.258195,47 206.763994,47 Z M254.490066,47 L254.490066,12.0140845 L268,12.0140845 L268,1 L228,1 L228,12.0140845 L241.576159,12.0140845 L241.576159,47 L254.490066,47 Z M278.04918,47 L280.803279,37.9943662 L293.196721,37.9943662 L296.016393,47 L309,47 L292.868852,1 L281.196721,1 L265,47 L278.04918,47 Z M291,29 L282,29 L286.604651,14 L291,29 Z" id="CONECTA"></path>
        </g>
        <g id="Gratis-Copy-3" transform="translate(-14.000000, 973.000000)" fill-rule="nonzero" stroke="#F0F2FD">
            <g id="Background">
                <path d="M18.9826337,38 C20.577813,38 22.2173028,37.8064815 23.9011032,37.4194444 C25.5849036,37.0324074 27.1623587,36.4694444 28.6334685,35.7305556 C30.1045783,34.9916667 31.4161702,34.0768519 32.5682441,32.9861111 C33.720318,31.8953704 34.5799424,30.6638889 35.1471173,29.2916667 L35.1471173,29.2916667 L26.692667,24.2777778 C26.3736311,25.1222222 25.9393879,25.8347222 25.3899372,26.4152778 C24.8404866,26.9958333 24.2201391,27.4708333 23.5288947,27.8402778 C22.8376503,28.2097222 22.1198197,28.4736111 21.3754027,28.6319444 C20.6309856,28.7902778 19.9042929,28.8694444 19.1953243,28.8694444 C17.848284,28.8694444 16.6341753,28.5967593 15.5529982,28.0513889 C14.4718211,27.5060185 13.5590241,26.7759259 12.8146071,25.8611111 C12.0701901,24.9462963 11.5030152,23.8907407 11.1130825,22.6944444 C10.7231498,21.4981481 10.5281834,20.2490741 10.5281834,18.9472222 C10.5281834,17.7861111 10.6965634,16.6162037 11.0333235,15.4375 C11.3700836,14.2587963 11.8840858,13.2032407 12.5753302,12.2708333 C13.2665745,11.3384259 14.1527853,10.5819444 15.2339623,10.0013889 C16.3151394,9.42083333 17.600145,9.13055556 19.088979,9.13055556 C19.7979476,9.13055556 20.5335025,9.20092593 21.2956437,9.34166667 C22.0577849,9.48240741 22.7933398,9.7287037 23.5023084,10.0805556 C24.211277,10.4324074 24.8582108,10.9074074 25.4431099,11.5055556 C26.028009,12.1037037 26.4977006,12.8601852 26.8521849,13.775 L26.8521849,13.775 L34.7749088,8.18055556 C33.4633169,5.71759259 31.4693428,3.73842593 28.7929864,2.24305556 C26.11663,0.747685185 22.9528577,0 19.3016696,0 C16.2531047,0 13.5412999,0.54537037 11.1662551,1.63611111 C8.79121038,2.72685185 6.77064993,4.15185185 5.10457377,5.91111111 C3.43849761,7.67037037 2.17121627,9.65833333 1.30272976,11.875 C0.434243255,14.0916667 0,16.3435185 0,18.6305556 C0,21.0231481 0.460829576,23.3805556 1.38248873,25.7027778 C2.30414788,28.025 3.60687764,30.1009259 5.29067802,31.9305556 C6.97447839,33.7601852 8.97731463,35.2291667 11.2991867,36.3375 C13.6210588,37.4458333 16.1822078,38 18.9826337,38 Z M55.611554,38 C58.3958965,38 60.9599587,37.4722222 63.3037407,36.4166667 C65.6475226,35.3611111 67.6652898,33.9625 69.3570422,32.2208333 C71.0487946,30.4791667 72.3704762,28.4736111 73.3220869,26.2041667 C74.2736976,23.9347222 74.749503,21.5685185 74.749503,19.1055556 C74.749503,16.712963 74.3001313,14.3731481 73.4013878,12.0861111 C72.5026443,9.79907407 71.2250188,7.75833333 69.5685113,5.96388889 C67.9120037,4.16944444 65.9206702,2.72685185 63.5945106,1.63611111 C61.2683511,0.54537037 58.6778552,0 55.823023,0 C53.0386805,0 50.4746183,0.518981481 48.1308363,1.55694444 C45.7870544,2.59490741 43.760476,3.98472222 42.0511012,5.72638889 C40.3417263,7.46805556 39.0112336,9.48240741 38.0596228,11.7694444 C37.1080121,14.0564815 36.6322068,16.4314815 36.6322068,18.8944444 C36.6322068,21.3222222 37.0903897,23.6796296 38.0067556,25.9666667 C38.9231215,28.2537037 40.2095582,30.2856481 41.8660657,32.0625 C43.5225733,33.8393519 45.5139069,35.2731481 47.8400664,36.3638889 C50.1662259,37.4546296 52.7567218,38 55.611554,38 Z M55.7175103,29.1168831 C54.224805,29.1168831 52.9364582,28.8353821 51.8524698,28.27238 C50.7684814,27.709378 49.8710812,26.9704378 49.1602692,26.0555594 C48.4494571,25.1406811 47.9163481,24.0938491 47.560942,22.9150635 C47.205536,21.736278 47.027833,20.5135079 47.027833,19.2467532 C47.027833,18.0151862 47.1966509,16.81001 47.5342866,15.6312244 C47.8719223,14.4524388 48.3961462,13.39681 49.1069583,12.4643378 C49.8177703,11.5318656 50.7151705,10.7841285 51.7991589,10.2211265 C52.8831473,9.65812441 54.1714941,9.37662338 55.6641994,9.37662338 C57.1213641,9.37662338 58.3919407,9.6493275 59.475929,10.1947357 C60.5599174,10.740144 61.4662028,11.4614904 62.1947851,12.3587749 C62.9233675,13.2560594 63.4653617,14.2940945 63.8207677,15.4728801 C64.1761737,16.6516656 64.3538767,17.8744357 64.3538767,19.1411904 C64.3538767,20.3727574 64.1850589,21.5867306 63.8474232,22.7831099 C63.5097874,23.9794893 62.9944487,25.0439151 62.3014069,25.9763872 C61.6083652,26.9088594 60.710965,27.6653934 59.6092063,28.2459893 C58.5074476,28.8265852 57.2102156,29.1168831 55.7175103,29.1168831 Z M89.0959685,38 L89.0959685,19.5637095 L104.116051,38 L112.371769,38 L112.371769,0.493506494 L101.985542,0.493506494 L101.985542,19.5637095 L86.8056723,0.493506494 L78.7097416,0.493506494 L78.7097416,38 L89.0959685,38 Z M146.033797,38 L146.033797,29.019572 L129.603894,29.019572 L129.603894,23.1030547 L143.233846,23.1030547 L143.233846,14.7565392 L129.603894,14.7565392 L129.603894,9.47393452 L145.558334,9.47393452 L145.558334,0.493506494 L119.302187,0.493506494 L119.302187,38 L146.033797,38 Z M166.99655,38 C168.59173,38 170.231219,37.8064815 171.91502,37.4194444 C173.59882,37.0324074 175.176275,36.4694444 176.647385,35.7305556 C178.118495,34.9916667 179.430087,34.0768519 180.582161,32.9861111 C181.734235,31.8953704 182.593859,30.6638889 183.161034,29.2916667 L183.161034,29.2916667 L174.706583,24.2777778 C174.387548,25.1222222 173.953304,25.8347222 173.403854,26.4152778 C172.854403,26.9958333 172.234056,27.4708333 171.542811,27.8402778 C170.851567,28.2097222 170.133736,28.4736111 169.389319,28.6319444 C168.644902,28.7902778 167.918209,28.8694444 167.209241,28.8694444 C165.8622,28.8694444 164.648092,28.5967593 163.566915,28.0513889 C162.485738,27.5060185 161.572941,26.7759259 160.828524,25.8611111 C160.084107,24.9462963 159.516932,23.8907407 159.126999,22.6944444 C158.737066,21.4981481 158.5421,20.2490741 158.5421,18.9472222 C158.5421,17.7861111 158.71048,16.6162037 159.04724,15.4375 C159.384,14.2587963 159.898002,13.2032407 160.589247,12.2708333 C161.280491,11.3384259 162.166702,10.5819444 163.247879,10.0013889 C164.329056,9.42083333 165.614061,9.13055556 167.102895,9.13055556 C167.811864,9.13055556 168.547419,9.20092593 169.30956,9.34166667 C170.071701,9.48240741 170.807256,9.7287037 171.516225,10.0805556 C172.225193,10.4324074 172.872127,10.9074074 173.457026,11.5055556 C174.041925,12.1037037 174.511617,12.8601852 174.866101,13.775 L174.866101,13.775 L182.788825,8.18055556 C181.477233,5.71759259 179.483259,3.73842593 176.806903,2.24305556 C174.130547,0.747685185 170.966774,0 167.315586,0 C164.267021,0 161.555216,0.54537037 159.180172,1.63611111 C156.805127,2.72685185 154.784566,4.15185185 153.11849,5.91111111 C151.452414,7.67037037 150.185133,9.65833333 149.316646,11.875 C148.44816,14.0916667 148.013917,16.3435185 148.013917,18.6305556 C148.013917,21.0231481 148.474746,23.3805556 149.396405,25.7027778 C150.318064,28.025 151.620794,30.1009259 153.304595,31.9305556 C154.988395,33.7601852 156.991231,35.2291667 159.313103,36.3375 C161.634975,37.4458333 164.196124,38 166.99655,38 Z M205.460324,38 L205.460324,9.47393452 L216.328032,9.47393452 L216.328032,0.493506494 L184.151093,0.493506494 L184.151093,9.47393452 L195.072074,9.47393452 L195.072074,38 L205.460324,38 Z M223.928326,38 L226.15928,30.6571794 L236.198573,30.6571794 L238.482645,38 L249,38 L235.932983,0.493506494 L226.477988,0.493506494 L213.357853,38 L223.928326,38 Z M234.644135,23.6883117 L227.713718,23.6883117 L231.259513,11.8441558 L234.644135,23.6883117 Z" id="CONECTA"></path>
            </g>
        </g>
        <g id="orange_outline-copy" opacity="0.2" transform="translate(12.000000, 1630.000000)" stroke="#FB9C24">
            <g id="Group-14">
                <path d="M-2.8659797e-12,63.478826 L0.283846794,20.521174 L40.2606834,5.59369386e-12 L80,20.521174 L79.7161532,63.478826 L39.7393166,84 L-2.8659797e-12,63.478826 Z" id="Combined-Shape"></path>
                <polyline id="Line-8" stroke-linecap="square" points="39.7905759 83.1515152 39.7905759 41.5204216 79.5811518 20.3636364"></polyline>
                <line x1="0.837696335" y1="20.3636364" x2="39.5811518" y2="41.3636364" id="Line-9" stroke-linecap="square"></line>
            </g>
        </g>
        <line x1="75.2098869" y1="1681.20906" x2="237.644105" y2="1765.64286" id="Line-13" stroke="#C3C5D2" opacity="0.2" stroke-linecap="square"></line>
        <g id="blue_outline" opacity="0.2" transform="translate(228.000000, 1750.000000)" stroke="#3B65E6">
            <path d="M1.31450406e-12,63.478826 L0.290942963,20.521174 L41.2672005,1.07469589e-11 L82,20.521174 L81.709057,63.478826 L40.7327995,84 L1.31450406e-12,63.478826 Z" id="Combined-Shape-Copy-2"></path>
            <polyline id="Line-8-Copy-2" stroke-linecap="square" points="41 83 41 41.2282609 82 20"></polyline>
            <line x1="1" y1="21" x2="40.7849462" y2="41.79" id="Line-9-Copy-2" stroke-linecap="square"></line>
        </g>
        <g id="orange_outline-copy" opacity="0.2" transform="translate(133.000000, 343.000000)" stroke="#FB9C24">
            <g id="Group-14">
                <path d="M-1.45376672e-12,58.1889239 L0.262558284,18.8110761 L37.2411322,3.5803459e-13 L74,18.8110761 L73.7374417,58.1889239 L36.7588678,77 L-1.45376672e-12,58.1889239 Z" id="Combined-Shape"></path>
                <polyline id="Line-8" stroke-linecap="square" points="36.8062827 76.2222222 36.8062827 38.0603865 73.6125654 18.6666667"></polyline>
                <line x1="0.77486911" y1="18.6666667" x2="36.6125654" y2="37.9166667" id="Line-9" stroke-linecap="square"></line>
            </g>
        </g>
        <line x1="191.194872" y1="390.192683" x2="342.805128" y2="468.807317" id="Line-13" stroke="#C3C5D2" opacity="0.2" stroke-linecap="square"></line>
        <g id="blue_outline" opacity="0.2" transform="translate(334.000000, 455.000000)" stroke="#3B65E6">
            <path d="M-1.48218843e-12,58.1889239 L0.262558284,18.8110761 L37.2411322,4.18430722e-13 L74,18.8110761 L73.7374417,58.1889239 L36.7588678,77 L-1.48218843e-12,58.1889239 Z" id="Combined-Shape-Copy-2"></path>
            <polyline id="Line-8-Copy-2" stroke-linecap="square" points="36.8062827 76.2222222 36.8062827 38.0603865 73.6125654 18.6666667"></polyline>
            <line x1="0.77486911" y1="18.6666667" x2="36.6125654" y2="37.9166667" id="Line-9-Copy-2" stroke-linecap="square"></line>
        </g>
    </g>
</svg>