<?xml version="1.0" encoding="UTF-8"?>
<svg width="1024px" height="1831px" viewBox="0 0 1024 1831" version="1.1" xmlns="http://www.w3.org/2000/svg" xmlns:xlink="http://www.w3.org/1999/xlink">
    <title>bg_feed</title>
    <g id="bg_feed" stroke="none" stroke-width="1" fill="none" fill-rule="evenodd">
        <g id="Background" transform="translate(215.000000, 495.000000)">
            <g id="orange_outline-copy" opacity="0.15" stroke="#FB9C24">
                <g id="Group-14">
                    <path d="M94.8776183,198 L-2.62190269e-12,149.628661 L0.67768422,48.3713387 L96.1223817,1.00897068e-12 L191,48.3713387 L190.322316,149.628661 L94.8776183,198 L94.8776183,198 Z" id="Combined-Shape"></path>
                    <polyline id="Line-8" stroke-linecap="square" points="95 196 95 97.8695652 190 48"></polyline>
                    <line x1="2" y1="48" x2="94.5" y2="97.5" id="Line-9" stroke-linecap="square"></line>
                </g>
            </g>
            <line x1="149.5" y1="120.5" x2="538.5" y2="324.5" id="Line-13" stroke="#C3C5D2" opacity="0.4" stroke-linecap="square"></line>
            <g id="blue_outline" opacity="0.15" transform="translate(515.000000, 287.000000)" stroke="#3B65E6">
                <path d="M94.8776183,198 L-2.62190269e-12,149.628661 L0.67768422,48.3713387 L96.1223817,1.00897068e-12 L191,48.3713387 L190.322316,149.628661 L94.8776183,198 L94.8776183,198 Z" id="Combined-Shape-Copy-2"></path>
                <polyline id="Line-8-Copy-2" stroke-linecap="square" points="95 196 95 97.8695652 190 48"></polyline>
                <line x1="2" y1="48" x2="94.5" y2="97.5" id="Line-9-Copy-2" stroke-linecap="square"></line>
            </g>
        </g>
        <g id="Gratis-Copy-3" transform="translate(0.000000, 1244.000000)" fill-rule="nonzero" stroke="#FFFFFF">
            <g id="Background">
                <path d="M38.3464448,77 C41.5688351,77 44.8807363,76.6078704 48.2821483,75.8236111 C51.6835603,75.0393519 54.8701462,73.8986111 57.8419062,72.4013889 C60.8136662,70.9041667 63.4631871,69.050463 65.790469,66.8402778 C68.1177509,64.6300926 69.8542612,62.1347222 71,59.3541667 L71,59.3541667 L53.9213313,49.1944444 C53.2768533,50.9055556 52.399647,52.3493056 51.2897126,53.5256944 C50.1797781,54.7020833 48.9266263,55.6645833 47.5302572,56.4131944 C46.133888,57.1618056 44.6838124,57.6965278 43.1800303,58.0173611 C41.6762481,58.3381944 40.2082703,58.4986111 38.7760968,58.4986111 C36.0549672,58.4986111 33.6023701,57.9460648 31.4183056,56.8409722 C29.234241,55.7358796 27.3903177,54.2564815 25.8865356,52.4027778 C24.3827534,50.5490741 23.2370146,48.4101852 22.4493192,45.9861111 C21.6616238,43.562037 21.2677761,41.0310185 21.2677761,38.3930556 C21.2677761,36.0402778 21.6079173,33.6696759 22.2881997,31.28125 C22.9684821,28.8928241 24.0068079,26.7539352 25.403177,24.8645833 C26.7995461,22.9752315 28.589763,21.4423611 30.7738275,20.2659722 C32.9578921,19.0895833 35.5537065,18.5013889 38.5612708,18.5013889 C39.9934443,18.5013889 41.4793243,18.6439815 43.0189107,18.9291667 C44.5584972,19.2143519 46.0443772,19.7134259 47.4765507,20.4263889 C48.9087242,21.1393519 50.2155825,22.1018519 51.3971256,23.3138889 C52.5786687,24.5259259 53.5274836,26.0587963 54.2435703,27.9125 L54.2435703,27.9125 L70.2481089,16.5763889 C67.598588,11.5856481 63.5706001,7.57523148 58.1641452,4.54513889 C52.7576904,1.5150463 46.3666162,0 38.9909228,0 C32.8325769,0 27.3545134,1.10509259 22.5567322,3.31527778 C17.7589511,5.52546296 13.6772567,8.41296296 10.311649,11.9777778 C6.94604135,15.5425926 4.38603127,19.5708333 2.63161876,24.0625 C0.877206253,28.5541667 0,33.1171296 0,37.7513889 C0,42.599537 0.930912758,47.3763889 2.79273828,52.0819444 C4.65456379,56.7875 7.28618255,60.9939815 10.6875946,64.7013889 C14.0890066,68.4087963 18.1348966,71.3854167 22.8252648,73.63125 C27.5156329,75.8770833 32.6893596,77 38.3464448,77 Z M112.339806,77 C117.964401,77 123.144013,75.9305556 127.878641,73.7916667 C132.613269,71.6527778 136.68932,68.81875 140.106796,65.2895833 C143.524272,61.7604167 146.194175,57.6965278 148.116505,53.0979167 C150.038835,48.4993056 151,43.7046296 151,38.7138889 C151,33.8657407 150.092233,29.124537 148.276699,24.4902778 C146.461165,19.8560185 143.880259,15.7208333 140.533981,12.0847222 C137.187702,8.44861111 133.165049,5.52546296 128.466019,3.31527778 C123.76699,1.10509259 118.533981,0 112.76699,0 C107.142395,0 101.962783,1.05162037 97.2281553,3.15486111 C92.4935275,5.25810185 88.3996764,8.07430556 84.9466019,11.6034722 C81.4935275,15.1326389 78.8058252,19.2143519 76.8834951,23.8486111 C74.961165,28.4828704 74,33.2953704 74,38.2861111 C74,43.2055556 74.9255663,47.9824074 76.776699,52.6166667 C78.6278317,57.2509259 81.2265372,61.368287 84.5728155,64.96875 C87.9190939,68.569213 91.9417476,71.474537 96.6407767,73.6847222 C101.339806,75.8949074 106.572816,77 112.339806,77 Z M112.553846,59 C109.538462,59 106.935897,58.42959 104.746154,57.2887701 C102.55641,56.1479501 100.74359,54.6506239 99.3076923,52.7967914 C97.8717949,50.942959 96.7948718,48.8217469 96.0769231,46.4331551 C95.3589744,44.0445633 95,41.5668449 95,39 C95,36.5044563 95.3410256,34.0623886 96.0230769,31.6737968 C96.7051282,29.285205 97.7641026,27.1461676 99.2,25.2566845 C100.635897,23.3672014 102.448718,21.8520499 104.638462,20.7112299 C106.828205,19.57041 109.430769,19 112.446154,19 C115.389744,19 117.95641,19.5525847 120.146154,20.657754 C122.335897,21.7629234 124.166667,23.2245989 125.638462,25.0427807 C127.110256,26.8609626 128.205128,28.9643494 128.923077,31.3529412 C129.641026,33.741533 130,36.2192513 130,38.7860963 C130,41.2816399 129.658974,43.741533 128.976923,46.1657754 C128.294872,48.5900178 127.253846,50.7468806 125.853846,52.6363636 C124.453846,54.5258467 122.641026,56.0588235 120.415385,57.2352941 C118.189744,58.4117647 115.569231,59 112.553846,59 Z M179.981013,77 L179.981013,39.6422535 L210.322785,77 L227,77 L227,1 L206.018987,1 L206.018987,39.6422535 L175.35443,1 L159,1 L159,77 L179.981013,77 Z M295,77 L295,58.8028169 L261.810277,58.8028169 L261.810277,46.8140845 L289.343874,46.8140845 L289.343874,29.9014085 L261.810277,29.9014085 L261.810277,19.1971831 L294.039526,19.1971831 L294.039526,1 L241,1 L241,77 L295,77 Z M337.346445,77 C340.568835,77 343.880736,76.6078704 347.282148,75.8236111 C350.68356,75.0393519 353.870146,73.8986111 356.841906,72.4013889 C359.813666,70.9041667 362.463187,69.050463 364.790469,66.8402778 C367.117751,64.6300926 368.854261,62.1347222 370,59.3541667 L370,59.3541667 L352.921331,49.1944444 C352.276853,50.9055556 351.399647,52.3493056 350.289713,53.5256944 C349.179778,54.7020833 347.926626,55.6645833 346.530257,56.4131944 C345.133888,57.1618056 343.683812,57.6965278 342.18003,58.0173611 C340.676248,58.3381944 339.20827,58.4986111 337.776097,58.4986111 C335.054967,58.4986111 332.60237,57.9460648 330.418306,56.8409722 C328.234241,55.7358796 326.390318,54.2564815 324.886536,52.4027778 C323.382753,50.5490741 322.237015,48.4101852 321.449319,45.9861111 C320.661624,43.562037 320.267776,41.0310185 320.267776,38.3930556 C320.267776,36.0402778 320.607917,33.6696759 321.2882,31.28125 C321.968482,28.8928241 323.006808,26.7539352 324.403177,24.8645833 C325.799546,22.9752315 327.589763,21.4423611 329.773828,20.2659722 C331.957892,19.0895833 334.553707,18.5013889 337.561271,18.5013889 C338.993444,18.5013889 340.479324,18.6439815 342.018911,18.9291667 C343.558497,19.2143519 345.044377,19.7134259 346.476551,20.4263889 C347.908724,21.1393519 349.215582,22.1018519 350.397126,23.3138889 C351.578669,24.5259259 352.527484,26.0587963 353.24357,27.9125 L353.24357,27.9125 L369.248109,16.5763889 C366.598588,11.5856481 362.5706,7.57523148 357.164145,4.54513889 C351.75769,1.5150463 345.366616,0 337.990923,0 C331.832577,0 326.354513,1.10509259 321.556732,3.31527778 C316.758951,5.52546296 312.677257,8.41296296 309.311649,11.9777778 C305.946041,15.5425926 303.386031,19.5708333 301.631619,24.0625 C299.877206,28.5541667 299,33.1171296 299,37.7513889 C299,42.599537 299.930913,47.3763889 301.792738,52.0819444 C303.654564,56.7875 306.286183,60.9939815 309.687595,64.7013889 C313.089007,68.4087963 317.134897,71.3854167 321.825265,73.63125 C326.515633,75.8770833 331.68936,77 337.346445,77 Z M415.046358,77 L415.046358,19.1971831 L437,19.1971831 L437,1 L372,1 L372,19.1971831 L394.061258,19.1971831 L394.061258,77 L415.046358,77 Z M452.353204,77 L456.859911,62.1211268 L477.140089,62.1211268 L481.754098,77 L503,77 L476.603577,1 L457.503726,1 L431,77 L452.353204,77 Z M474,48 L460,48 L467.162791,24 L474,48 Z" id="CONECTA"></path>
            </g>
        </g>
        <path d="M299.950076,274 C304.987897,274 310.165658,273.388889 315.483359,272.166667 C320.801059,270.944444 325.782905,269.166667 330.428896,266.833333 C335.074887,264.5 339.217095,261.611111 342.855522,258.166667 C346.493949,254.722222 349.208775,250.833333 351,246.5 L351,246.5 L324.299546,230.666667 C323.291982,233.333333 321.920575,235.583333 320.185325,237.416667 C318.450076,239.25 316.490923,240.75 314.307867,241.916667 C312.124811,243.083333 309.857791,243.916667 307.506808,244.416667 C305.155825,244.916667 302.860817,245.166667 300.621785,245.166667 C296.367625,245.166667 292.533283,244.305556 289.118759,242.583333 C285.704236,240.861111 282.821483,238.555556 280.470499,235.666667 C278.119516,232.777778 276.32829,229.444444 275.096823,225.666667 C273.865356,221.888889 273.249622,217.944444 273.249622,213.833333 C273.249622,210.166667 273.781392,206.472222 274.844932,202.75 C275.908472,199.027778 277.53177,195.694444 279.714826,192.75 C281.897882,189.805556 284.696672,187.416667 288.111195,185.583333 C291.525719,183.75 295.583964,182.833333 300.28593,182.833333 C302.524962,182.833333 304.847958,183.055556 307.254917,183.5 C309.661876,183.944444 311.984871,184.722222 314.223903,185.833333 C316.462935,186.944444 318.506051,188.444444 320.353253,190.333333 C322.200454,192.222222 323.683812,194.611111 324.803328,197.5 L324.803328,197.5 L349.824508,179.833333 C345.6823,172.055556 339.385023,165.805556 330.932678,161.083333 C322.480333,156.361111 312.488654,154 300.95764,154 C291.329803,154 282.765507,155.722222 275.26475,159.166667 C267.763994,162.611111 261.382753,167.111111 256.121029,172.666667 C250.859304,178.222222 246.857035,184.5 244.114221,191.5 C241.371407,198.5 240,205.611111 240,212.833333 C240,220.388889 241.455371,227.833333 244.366112,235.166667 C247.276853,242.5 251.391074,249.055556 256.708775,254.833333 C262.026475,260.611111 268.35174,265.25 275.684569,268.75 C283.017398,272.25 291.1059,274 299.950076,274 Z M414.750347,274 C423.51595,274 431.588072,272.333333 438.966713,269 C446.345354,265.666667 452.697642,261.25 458.023578,255.75 C463.349515,250.25 467.510402,243.916667 470.506241,236.75 C473.50208,229.583333 475,222.111111 475,214.333333 C475,206.777778 473.585298,199.388889 470.755895,192.166667 C467.926491,184.944444 463.9043,178.5 458.68932,172.833333 C453.474341,167.166667 447.20527,162.611111 439.882108,159.166667 C432.558946,155.722222 424.403606,154 415.416089,154 C406.650485,154 398.578363,155.638889 391.199723,158.916667 C383.821082,162.194444 377.441054,166.583333 372.059639,172.083333 C366.678225,177.583333 362.489598,183.944444 359.493759,191.166667 C356.49792,198.388889 355,205.888889 355,213.666667 C355,221.333333 356.442441,228.777778 359.327323,236 C362.212205,243.222222 366.262136,249.638889 371.477115,255.25 C376.692094,260.861111 382.961165,265.388889 390.284327,268.833333 C397.60749,272.277778 405.762829,274 414.750347,274 Z M415.584615,246 C410.846154,246 406.75641,245.115865 403.315385,243.347594 C399.874359,241.579323 397.025641,239.258467 394.769231,236.385027 C392.512821,233.511586 390.820513,230.223708 389.692308,226.52139 C388.564103,222.819073 388,218.97861 388,215 C388,211.131907 388.535897,207.346702 389.607692,203.644385 C390.679487,199.942068 392.34359,196.62656 394.6,193.697861 C396.85641,190.769162 399.705128,188.420677 403.146154,186.652406 C406.587179,184.884135 410.676923,184 415.415385,184 C420.041026,184 424.074359,184.856506 427.515385,186.569519 C430.95641,188.282531 433.833333,190.548128 436.146154,193.36631 C438.458974,196.184492 440.179487,199.444742 441.307692,203.147059 C442.435897,206.849376 443,210.68984 443,214.668449 C443,218.536542 442.464103,222.349376 441.392308,226.106952 C440.320513,229.864528 438.684615,233.207665 436.484615,236.136364 C434.284615,239.065062 431.435897,241.441176 427.938462,243.264706 C424.441026,245.088235 420.323077,246 415.584615,246 Z M520.705696,274 L520.705696,215.997183 L568.003165,274 L594,274 L594,156 L561.294304,156 L561.294304,215.997183 L513.493671,156 L488,156 L488,274 L520.705696,274 Z M700,274 L700,245.746479 L648.371542,245.746479 L648.371542,227.132394 L691.201581,227.132394 L691.201581,200.873239 L648.371542,200.873239 L648.371542,184.253521 L698.505929,184.253521 L698.505929,156 L616,156 L616,274 L700,274 Z M765.950076,274 C770.987897,274 776.165658,273.388889 781.483359,272.166667 C786.801059,270.944444 791.782905,269.166667 796.428896,266.833333 C801.074887,264.5 805.217095,261.611111 808.855522,258.166667 C812.493949,254.722222 815.208775,250.833333 817,246.5 L817,246.5 L790.299546,230.666667 C789.291982,233.333333 787.920575,235.583333 786.185325,237.416667 C784.450076,239.25 782.490923,240.75 780.307867,241.916667 C778.124811,243.083333 775.857791,243.916667 773.506808,244.416667 C771.155825,244.916667 768.860817,245.166667 766.621785,245.166667 C762.367625,245.166667 758.533283,244.305556 755.118759,242.583333 C751.704236,240.861111 748.821483,238.555556 746.470499,235.666667 C744.119516,232.777778 742.32829,229.444444 741.096823,225.666667 C739.865356,221.888889 739.249622,217.944444 739.249622,213.833333 C739.249622,210.166667 739.781392,206.472222 740.844932,202.75 C741.908472,199.027778 743.53177,195.694444 745.714826,192.75 C747.897882,189.805556 750.696672,187.416667 754.111195,185.583333 C757.525719,183.75 761.583964,182.833333 766.28593,182.833333 C768.524962,182.833333 770.847958,183.055556 773.254917,183.5 C775.661876,183.944444 777.984871,184.722222 780.223903,185.833333 C782.462935,186.944444 784.506051,188.444444 786.353253,190.333333 C788.200454,192.222222 789.683812,194.611111 790.803328,197.5 L790.803328,197.5 L815.824508,179.833333 C811.6823,172.055556 805.385023,165.805556 796.932678,161.083333 C788.480333,156.361111 778.488654,154 766.95764,154 C757.329803,154 748.765507,155.722222 741.26475,159.166667 C733.763994,162.611111 727.382753,167.111111 722.121029,172.666667 C716.859304,178.222222 712.857035,184.5 710.114221,191.5 C707.371407,198.5 706,205.611111 706,212.833333 C706,220.388889 707.455371,227.833333 710.366112,235.166667 C713.276853,242.5 717.391074,249.055556 722.708775,254.833333 C728.026475,260.611111 734.35174,265.25 741.684569,268.75 C749.017398,272.25 757.1059,274 765.950076,274 Z M886.887417,274 L886.887417,184.253521 L921,184.253521 L921,156 L820,156 L820,184.253521 L854.279801,184.253521 L854.279801,274 L886.887417,274 Z M945.216095,274 L952.226528,250.898592 L983.773472,250.898592 L990.95082,274 L1024,274 L982.938897,156 L953.228018,156 L912,274 L945.216095,274 Z M979,229 L957,229 L968.255814,192 L979,229 Z" id="CONECTA" stroke="#FFFFFF" fill-rule="nonzero"></path>
    </g>
</svg>