<?xml version="1.0" encoding="UTF-8"?>
<svg width="1024px" height="1693px" viewBox="0 0 1024 1693" version="1.1" xmlns="http://www.w3.org/2000/svg" xmlns:xlink="http://www.w3.org/1999/xlink">
    <title>bg_negocios</title>
    <defs>
        <path d="M94.8776183,198 L-2.62190269e-12,149.628661 L0.67768422,48.3713387 L96.1223817,1.00897068e-12 L191,48.3713387 L190.322316,149.628661 L94.8776183,198 L94.8776183,198 Z" id="path-1"></path>
        <path d="M94.8776183,198 L-2.62190269e-12,149.628661 L0.67768422,48.3713387 L96.1223817,1.00897068e-12 L191,48.3713387 L190.322316,149.628661 L94.8776183,198 L94.8776183,198 Z" id="path-2"></path>
    </defs>
    <g id="bg_negocios" stroke="none" stroke-width="1" fill="none" fill-rule="evenodd">
        <g id="orange_outline" opacity="0.15" transform="translate(37.000000, 408.000000)">
            <g id="Group-14">
                <g id="Combined-Shape">
                    <use fill="#FFFFFF" fill-rule="evenodd" style="mix-blend-mode: multiply;" xlink:href="#path-1"></use>
                    <use stroke="#FB9C24" stroke-width="1" xlink:href="#path-1"></use>
                </g>
                <polyline id="Line-8" stroke="#FB9C24" stroke-linecap="square" points="95 196 95 97.8695652 190 48"></polyline>
                <line x1="2" y1="48" x2="94.5" y2="97.5" id="Line-9" stroke="#FB9C24" stroke-linecap="square"></line>
            </g>
        </g>
        <line x1="186.5" y1="528.5" x2="575.5" y2="732.5" id="Line-13" stroke="#C3C5D2" opacity="0.3" stroke-linecap="square"></line>
        <g id="blue_outline" opacity="0.15" transform="translate(552.000000, 695.000000)">
            <g id="Combined-Shape-Copy-2">
                <use fill="#FFFFFF" fill-rule="evenodd" style="mix-blend-mode: multiply;" xlink:href="#path-2"></use>
                <use stroke="#3B65E6" stroke-width="1" xlink:href="#path-2"></use>
            </g>
            <polyline id="Line-8-Copy-2" stroke="#3B65E6" stroke-width="1" stroke-linecap="square" points="95 196 95 97.8695652 190 48"></polyline>
            <line x1="2" y1="48" x2="94.5" y2="97.5" id="Line-9-Copy-2" stroke="#3B65E6" stroke-width="1" stroke-linecap="square"></line>
        </g>
        <path d="M326.789713,198 C331.645991,198 336.637166,197.409259 341.763237,196.227778 C346.889309,195.046296 351.691628,193.327778 356.170196,191.072222 C360.648764,188.816667 364.641704,186.024074 368.149017,182.694444 C371.656329,179.364815 374.273323,175.605556 376,171.416667 L376,171.416667 L350.261724,156.111111 C349.290469,158.688889 347.968482,160.863889 346.295765,162.636111 C344.623046,164.408333 342.734493,165.858333 340.630106,166.986111 C338.525719,168.113889 336.340393,168.919444 334.07413,169.402778 C331.807867,169.886111 329.595562,170.127778 327.437217,170.127778 C323.336359,170.127778 319.640191,169.29537 316.348715,167.630556 C313.057236,165.965741 310.278367,163.737037 308.012104,160.944444 C305.745839,158.151852 304.019163,154.92963 302.832072,151.277778 C301.644983,147.625926 301.051437,143.812963 301.051437,139.838889 C301.051437,136.294444 301.564044,132.723148 302.589259,129.125 C303.614473,125.526852 305.179274,122.30463 307.283661,119.458333 C309.388048,116.612037 312.085981,114.302778 315.377459,112.530556 C318.668936,110.758333 322.580939,109.872222 327.113465,109.872222 C329.27181,109.872222 331.511094,110.087037 333.831317,110.516667 C336.151538,110.946296 338.390822,111.698148 340.549168,112.772222 C342.707514,113.846296 344.677004,115.296296 346.457641,117.122222 C348.238276,118.948148 349.66818,121.257407 350.747352,124.05 L350.747352,124.05 L374.866868,106.972222 C370.873928,99.4537036 364.80358,93.412037 356.655824,88.8472222 C348.508068,84.2824074 338.876449,82 327.760968,82 C318.480081,82 310.224407,83.6648148 302.993948,86.9944444 C295.76349,90.3240741 289.612204,94.6740741 284.540091,100.044444 C279.467977,105.414815 275.609934,111.483333 272.965961,118.25 C270.321987,125.016667 269,131.890741 269,138.872222 C269,146.175926 270.402925,153.372222 273.208774,160.461111 C276.014625,167.55 279.980586,173.887037 285.106657,179.472222 C290.232729,185.057407 296.330056,189.541667 303.398639,192.925 C310.467222,196.308333 318.264247,198 326.789713,198 Z M438.758669,198 C447.232085,198 455.035136,196.388889 462.167823,193.166667 C469.300509,189.944444 475.441054,185.675 480.589459,180.358333 C485.737864,175.041667 489.760056,168.919444 492.656034,161.991667 C495.552011,155.063889 497,147.840741 497,140.322222 C497,133.018518 495.632455,125.875926 492.897365,118.894444 C490.162275,111.912963 486.274156,105.683333 481.23301,100.205556 C476.191863,94.7277778 470.131762,90.3240741 463.052704,86.9944444 C455.973647,83.6648148 448.090153,82 439.402219,82 C430.928803,82 423.125751,83.5842593 415.993065,86.7527778 C408.86038,89.9212963 402.693018,94.1638889 397.490985,99.4805555 C392.288951,104.797222 388.239944,110.946296 385.343966,117.927778 C382.447989,124.909259 381,132.159259 381,139.677778 C381,147.088889 382.394359,154.285185 385.183079,161.266667 C387.971799,168.248148 391.886731,174.450926 396.927879,179.875 C401.969025,185.299074 408.029127,189.675926 415.108184,193.005556 C422.18724,196.335185 430.070736,198 438.758669,198 Z M438.581538,171 C434.015385,171 430.074358,170.144385 426.758462,168.433155 C423.442564,166.721925 420.697436,164.475936 418.523076,161.695187 C416.348718,158.914439 414.717949,155.73262 413.630769,152.149733 C412.543589,148.566845 412,144.850267 412,141 C412,137.256684 412.516411,133.593583 413.549231,130.010695 C414.582051,126.427808 416.185642,123.219251 418.36,120.385027 C420.534358,117.550802 423.279487,115.278075 426.595385,113.566845 C429.911282,111.855615 433.852307,111 438.418462,111 C442.875898,111 446.762564,111.828877 450.078462,113.486631 C453.394358,115.144385 456.166667,117.336898 458.395385,120.064171 C460.624102,122.791444 462.282051,125.946524 463.369231,129.529412 C464.456411,133.1123 465,136.828877 465,140.679144 C465,144.42246 464.483589,148.1123 463.450769,151.748663 C462.417949,155.385027 460.841538,158.620321 458.721538,161.454545 C456.601538,164.28877 453.856411,166.588235 450.486154,168.352941 C447.115898,170.117647 443.147693,171 438.581538,171 Z M540.471519,198 L540.471519,141.96338 L585.984177,198 L611,198 L611,84 L579.528481,84 L579.528481,141.96338 L533.531645,84 L509,84 L509,198 L540.471519,198 Z M713,198 L713,170.704225 L663.215416,170.704225 L663.215416,152.721127 L704.515811,152.721127 L704.515811,127.352113 L663.215416,127.352113 L663.215416,111.295775 L711.559289,111.295775 L711.559289,84 L632,84 L632,198 L713,198 Z M777.789713,198 C782.645991,198 787.637166,197.409259 792.763237,196.227778 C797.889309,195.046296 802.691628,193.327778 807.170196,191.072222 C811.648764,188.816667 815.641704,186.024074 819.149017,182.694444 C822.656329,179.364815 825.273323,175.605556 827,171.416667 L827,171.416667 L801.261724,156.111111 C800.290469,158.688889 798.968482,160.863889 797.295765,162.636111 C795.623046,164.408333 793.734493,165.858333 791.630106,166.986111 C789.525719,168.113889 787.340393,168.919444 785.07413,169.402778 C782.807867,169.886111 780.595562,170.127778 778.437217,170.127778 C774.336359,170.127778 770.640191,169.29537 767.348715,167.630556 C764.057236,165.965741 761.278367,163.737037 759.012104,160.944444 C756.745839,158.151852 755.019163,154.92963 753.832072,151.277778 C752.644983,147.625926 752.051437,143.812963 752.051437,139.838889 C752.051437,136.294444 752.564044,132.723148 753.589259,129.125 C754.614473,125.526852 756.179274,122.30463 758.283661,119.458333 C760.388048,116.612037 763.085981,114.302778 766.377459,112.530556 C769.668936,110.758333 773.580939,109.872222 778.113465,109.872222 C780.27181,109.872222 782.511094,110.087037 784.831317,110.516667 C787.151538,110.946296 789.390822,111.698148 791.549168,112.772222 C793.707514,113.846296 795.677004,115.296296 797.457641,117.122222 C799.238276,118.948148 800.66818,121.257407 801.747352,124.05 L801.747352,124.05 L825.866868,106.972222 C821.873928,99.4537036 815.80358,93.412037 807.655824,88.8472222 C799.508068,84.2824074 789.876449,82 778.760968,82 C769.480081,82 761.224407,83.6648148 753.993948,86.9944444 C746.76349,90.3240741 740.612204,94.6740741 735.540091,100.044444 C730.467977,105.414815 726.609934,111.483333 723.965961,118.25 C721.321987,125.016667 720,131.890741 720,138.872222 C720,146.175926 721.402925,153.372222 724.208774,160.461111 C727.014625,167.55 730.980586,173.887037 736.106657,179.472222 C741.232729,185.057407 747.330056,189.541667 754.398639,192.925 C761.467222,196.308333 769.264247,198 777.789713,198 Z M894.900663,198 L894.900663,111.295775 L928,111.295775 L928,84 L830,84 L830,111.295775 L863.261589,111.295775 L863.261589,198 L894.900663,198 Z M950.326378,198 L957.149032,175.68169 L987.850968,175.68169 L994.836065,198 L1027,198 L987.038749,84 L958.123696,84 L918,198 L950.326378,198 Z M983,154 L962,154 L972.744186,118 L983,154 Z" id="CONECTA" stroke="#F0F2FD"></path>
        <path d="M57.7897129,1290 C62.6459908,1290 67.6371655,1289.40926 72.7632371,1288.22778 C77.8893087,1287.0463 82.6916285,1285.32778 87.1701964,1283.07222 C91.6487643,1280.81667 95.6417044,1278.02407 99.1490167,1274.69444 C102.656329,1271.36481 105.273323,1267.60556 107,1263.41667 L107,1263.41667 L81.2617242,1248.11111 C80.2904686,1250.68889 78.9684821,1252.86389 77.2957647,1254.63611 C75.6230457,1256.40833 73.7344927,1257.85833 71.6301056,1258.98611 C69.5257185,1260.11389 67.3403927,1260.91944 65.0741297,1261.40278 C62.8078667,1261.88611 60.5955618,1262.12778 58.4372166,1262.12778 C54.3363587,1262.12778 50.6401914,1261.29537 47.3487147,1259.63056 C44.0572364,1257.96574 41.2783666,1255.73704 39.0121035,1252.94444 C36.745839,1250.15185 35.0191635,1246.92963 33.8320723,1243.27778 C32.6449826,1239.62593 32.0514371,1235.81296 32.0514371,1231.83889 C32.0514371,1228.29444 32.5640439,1224.72315 33.5892592,1221.125 C34.6144729,1217.52685 36.179274,1214.30463 38.2836611,1211.45833 C40.3880482,1208.61204 43.0859809,1206.30278 46.3774591,1204.53056 C49.6689358,1202.75833 53.5809387,1201.87222 58.1134647,1201.87222 C60.27181,1201.87222 62.5110939,1202.08704 64.8313166,1202.51667 C67.1515377,1202.9463 69.3908217,1203.69815 71.5491684,1204.77222 C73.7075136,1205.8463 75.6770039,1207.2963 77.4576406,1209.12222 C79.2382758,1210.94815 80.6681801,1213.25741 81.747352,1216.05 L81.747352,1216.05 L105.866868,1198.97222 C101.873928,1191.4537 95.8035803,1185.41204 87.6558242,1180.84722 C79.508068,1176.28241 69.8764495,1174 58.7609685,1174 C49.4800808,1174 41.2244069,1175.66481 33.9939482,1178.99444 C26.7634895,1182.32407 20.6122042,1186.67407 15.5400907,1192.04444 C10.4679773,1197.41481 6.60993404,1203.48333 3.96596103,1210.25 C1.32198651,1217.01667 0,1223.89074 0,1230.87222 C0,1238.17593 1.40292523,1245.37222 4.20877417,1252.46111 C7.01462462,1259.55 10.9805856,1265.88704 16.1066573,1271.47222 C21.2327289,1277.05741 27.330056,1281.54167 34.3986388,1284.925 C41.4672216,1288.30833 49.2642468,1290 57.7897129,1290 Z M169.758669,1290 C178.232085,1290 186.035136,1288.38889 193.167823,1285.16667 C200.300509,1281.94444 206.441054,1277.675 211.589459,1272.35833 C216.737864,1267.04167 220.760056,1260.91944 223.656034,1253.99167 C226.552011,1247.06389 228,1239.84074 228,1232.32222 C228,1225.01852 226.632455,1217.87593 223.897365,1210.89444 C221.162275,1203.91296 217.274156,1197.68333 212.23301,1192.20556 C207.191863,1186.72778 201.131762,1182.32407 194.052704,1178.99444 C186.973647,1175.66481 179.090153,1174 170.402219,1174 C161.928803,1174 154.125751,1175.58426 146.993065,1178.75278 C139.86038,1181.9213 133.693018,1186.16389 128.490985,1191.48056 C123.288951,1196.79722 119.239944,1202.9463 116.343966,1209.92778 C113.447989,1216.90926 112,1224.15926 112,1231.67778 C112,1239.08889 113.394359,1246.28519 116.183079,1253.26667 C118.971799,1260.24815 122.886731,1266.45093 127.927879,1271.875 C132.969025,1277.29907 139.029127,1281.67593 146.108184,1285.00556 C153.18724,1288.33519 161.070736,1290 169.758669,1290 Z M169.581538,1263 C165.015385,1263 161.074358,1262.14439 157.758462,1260.43316 C154.442564,1258.72193 151.697436,1256.47594 149.523076,1253.69519 C147.348718,1250.91444 145.717949,1247.73262 144.630769,1244.14973 C143.543589,1240.56684 143,1236.85027 143,1233 C143,1229.25668 143.516411,1225.59358 144.549231,1222.0107 C145.582051,1218.42781 147.185642,1215.21925 149.36,1212.38503 C151.534358,1209.5508 154.279487,1207.27807 157.595385,1205.56684 C160.911282,1203.85561 164.852307,1203 169.418462,1203 C173.875898,1203 177.762564,1203.82888 181.078462,1205.48663 C184.394358,1207.14439 187.166667,1209.3369 189.395385,1212.06417 C191.624102,1214.79144 193.282051,1217.94652 194.369231,1221.52941 C195.456411,1225.1123 196,1228.82888 196,1232.67914 C196,1236.42246 195.483589,1240.1123 194.450769,1243.74866 C193.417949,1247.38503 191.841538,1250.62032 189.721538,1253.45455 C187.601538,1256.28877 184.856411,1258.58824 181.486154,1260.35294 C178.115898,1262.11765 174.147693,1263 169.581538,1263 Z M271.471519,1290 L271.471519,1233.96338 L316.984177,1290 L342,1290 L342,1176 L310.528481,1176 L310.528481,1233.96338 L264.531645,1176 L240,1176 L240,1290 L271.471519,1290 Z M444,1290 L444,1262.70423 L394.215416,1262.70423 L394.215416,1244.72113 L435.515811,1244.72113 L435.515811,1219.35211 L394.215416,1219.35211 L394.215416,1203.29577 L442.559289,1203.29577 L442.559289,1176 L363,1176 L363,1290 L444,1290 Z M508.789713,1290 C513.645991,1290 518.637166,1289.40926 523.763237,1288.22778 C528.889309,1287.0463 533.691628,1285.32778 538.170196,1283.07222 C542.648764,1280.81667 546.641704,1278.02407 550.149017,1274.69444 C553.656329,1271.36481 556.273323,1267.60556 558,1263.41667 L558,1263.41667 L532.261724,1248.11111 C531.290469,1250.68889 529.968482,1252.86389 528.295765,1254.63611 C526.623046,1256.40833 524.734493,1257.85833 522.630106,1258.98611 C520.525719,1260.11389 518.340393,1260.91944 516.07413,1261.40278 C513.807867,1261.88611 511.595562,1262.12778 509.437217,1262.12778 C505.336359,1262.12778 501.640191,1261.29537 498.348715,1259.63056 C495.057236,1257.96574 492.278367,1255.73704 490.012104,1252.94444 C487.745839,1250.15185 486.019163,1246.92963 484.832072,1243.27778 C483.644983,1239.62593 483.051437,1235.81296 483.051437,1231.83889 C483.051437,1228.29444 483.564044,1224.72315 484.589259,1221.125 C485.614473,1217.52685 487.179274,1214.30463 489.283661,1211.45833 C491.388048,1208.61204 494.085981,1206.30278 497.377459,1204.53056 C500.668936,1202.75833 504.580939,1201.87222 509.113465,1201.87222 C511.27181,1201.87222 513.511094,1202.08704 515.831317,1202.51667 C518.151538,1202.9463 520.390822,1203.69815 522.549168,1204.77222 C524.707514,1205.8463 526.677004,1207.2963 528.457641,1209.12222 C530.238276,1210.94815 531.66818,1213.25741 532.747352,1216.05 L532.747352,1216.05 L556.866868,1198.97222 C552.873928,1191.4537 546.80358,1185.41204 538.655824,1180.84722 C530.508068,1176.28241 520.876449,1174 509.760968,1174 C500.480081,1174 492.224407,1175.66481 484.993948,1178.99444 C477.76349,1182.32407 471.612204,1186.67407 466.540091,1192.04444 C461.467977,1197.41481 457.609934,1203.48333 454.965961,1210.25 C452.321987,1217.01667 451,1223.89074 451,1230.87222 C451,1238.17593 452.402925,1245.37222 455.208774,1252.46111 C458.014625,1259.55 461.980586,1265.88704 467.106657,1271.47222 C472.232729,1277.05741 478.330056,1281.54167 485.398639,1284.925 C492.467222,1288.30833 500.264247,1290 508.789713,1290 Z M625.900663,1290 L625.900663,1203.29577 L659,1203.29577 L659,1176 L561,1176 L561,1203.29577 L594.261589,1203.29577 L594.261589,1290 L625.900663,1290 Z M681.326378,1290 L688.149032,1267.68169 L718.850968,1267.68169 L725.836065,1290 L758,1290 L718.038749,1176 L689.123696,1176 L649,1290 L681.326378,1290 Z M714,1246 L693,1246 L703.744186,1210 L714,1246 Z" id="CONECTA-Copy" stroke="#F0F2FD"></path>
    </g>
</svg>