<?xml version="1.0" encoding="UTF-8"?>
<svg width="373px" height="373px" viewBox="0 0 373 373" version="1.1" xmlns="http://www.w3.org/2000/svg" xmlns:xlink="http://www.w3.org/1999/xlink">
    <title>composicion_logo</title>
    <g id="composicion_logo" stroke="none" stroke-width="1" fill="none" fill-rule="evenodd">
        <g id="Group-2-Copy">
            <rect id="Rectangle" fill="#FFFFFF" transform="translate(186.500000, 186.500000) rotate(-45.000000) translate(-186.500000, -186.500000) " x="55" y="55" width="263" height="263" rx="54"></rect>
            <g id="yellow_square" transform="translate(229.000000, 38.000000)">
                <g id="Group-20-Copy" transform="translate(-24.326923, 0.000000)">
                    <path d="M27.9275104,82.0167543 L28.2955564,26.5140393 L80.1309602,1.22923893e-12 L131.658387,26.5140393 L131.290341,82.0167543 L79.4549371,108.530794 L27.9275104,82.0167543 Z" id="Combined-Shape" fill="#FFD24F"></path>
                    <polygon id="Rectangle" fill="#FBD874" transform="translate(53.825891, 67.571772) rotate(-45.000000) translate(-53.825891, -67.571772) " points="64.8054198 20.4868984 25.2988258 59.4729968 42.9859617 114.656647 82.3529556 76.2456936"></polygon>
                    <polygon id="Rectangle" fill="#F6C73E" transform="translate(105.760007, 67.725761) rotate(-45.000000) translate(-105.760007, -67.725761) " points="58.3059984 77.9787833 113.707421 95.8836918 153.214015 56.8975934 97.6729923 39.5678302"></polygon>
                </g>
            </g>
            <g id="green_square" transform="translate(53.000000, 64.000000)">
                <g id="Group-20-Copy" transform="translate(-16.586538, 1.428571)">
                    <path d="M19.0414844,54.9219337 L19.2924248,17.754937 L54.6347456,8.10018719e-13 L89.767082,17.754937 L89.5161415,54.9219337 L54.1738208,72.6768707 L19.0414844,54.9219337 Z" id="Combined-Shape" fill="#1CD6BF"></path>
                    <polygon id="Rectangle" fill="#1DE0C8" transform="translate(36.701009, 45.248017) rotate(-45.000000) translate(-36.701009, -45.248017) " points="43.8318247 13.4977457 17.3733476 39.6013394 29.6610246 76.9982891 56.0286709 51.2824888"></polygon>
                    <polygon id="Rectangle" fill="#0BCDB5" transform="translate(72.107557, 45.353010) rotate(-45.000000) translate(-72.107557, -45.353010) " points="40.105603 51.9928305 77.651034 64.4289888 104.109511 38.3253951 66.4732494 26.2770302"></polygon>
                </g>
            </g>
            <g id="blue_square" transform="translate(66.000000, 243.000000)">
                <g id="Group-20-Copy-3" transform="translate(-11.057692, 0.952381)">
                    <path d="M12.6943229,36.6146225 L12.8616165,11.8366247 L36.4231637,5.4534155e-13 L59.8447213,11.8366247 L59.6774277,36.6146225 L36.1158805,48.4512471 L12.6943229,36.6146225 Z" id="Combined-Shape" fill="#3B65E6"></path>
                    <polygon id="Rectangle" fill="#4D75F1" transform="translate(24.467340, 30.165345) rotate(-45.000000) translate(-24.467340, -30.165345) " points="29.2212165 8.99849711 11.5822318 26.4008929 19.7740164 51.3321927 37.3524473 34.1883259"></polygon>
                    <polygon id="Rectangle" fill="#325DE1" transform="translate(48.071705, 30.235340) rotate(-45.000000) translate(-48.071705, -30.235340) " points="26.7370687 34.661887 51.767356 42.9526592 69.4063407 25.5502634 44.3154996 17.5180202"></polygon>
                </g>
            </g>
            <g id="purple_square" transform="translate(256.000000, 230.000000)">
                <g id="Group-20-Copy-4" transform="translate(-16.586538, 1.428571)">
                    <path d="M19.0414844,54.9219337 L19.2924248,17.754937 L54.6347456,8.13571432e-13 L89.767082,17.754937 L89.5161415,54.9219337 L54.1738208,72.6768707 L19.0414844,54.9219337 Z" id="Combined-Shape" fill="#808EDE"></path>
                    <polygon id="Rectangle" fill="#8A99EA" transform="translate(36.701009, 45.248017) rotate(-45.000000) translate(-36.701009, -45.248017) " points="43.8318247 13.4977457 17.3733476 39.6013394 29.6610246 76.9982891 56.0286709 51.2824888"></polygon>
                    <polygon id="Rectangle" fill="#6B7BDA" transform="translate(72.107557, 45.353010) rotate(-45.000000) translate(-72.107557, -45.353010) " points="40.105603 51.9928305 77.651034 64.4289888 104.109511 38.3253951 66.4732494 26.2770302"></polygon>
                </g>
            </g>
            <g id="conecta_logotipo" transform="translate(102.000000, 160.000000)" fill="#1B1B1F" fill-rule="nonzero">
                <path d="M20.5480502,26.8421053 C21.5110754,26.8421053 22.5008514,26.7245468 23.517378,26.4894298 C24.5339046,26.2543129 25.4862295,25.9123246 26.3743527,25.4634649 C27.262476,25.0146053 28.0542967,24.4588743 28.7498149,23.7962719 C29.4453331,23.1336696 29.9642967,22.3855702 30.3067056,21.5519737 L30.3067056,21.5519737 L25.2026721,18.5061404 C25.010067,19.0191228 24.7479102,19.4519518 24.4162015,19.8046272 C24.0844928,20.1573026 23.709983,20.4458553 23.2926721,20.6702851 C22.8753612,20.8947149 22.4419998,21.0550219 21.9925881,21.1512061 C21.5431763,21.2473904 21.1044648,21.2954825 20.6764536,21.2954825 C19.8632323,21.2954825 19.1302631,21.1298319 18.4775461,20.7985307 C17.824829,20.4672295 17.2737646,20.0237135 16.8243528,19.4679825 C16.374941,18.9122515 16.0325321,18.2710234 15.7971259,17.5442982 C15.5617197,16.8175731 15.4440167,16.0587865 15.4440167,15.2679386 C15.4440167,14.5625877 15.5456693,13.8518933 15.7489746,13.1358553 C15.95228,12.4198173 16.2625881,11.7785892 16.679899,11.2121711 C17.0972099,10.6457529 17.6322239,10.1862061 18.284941,9.8335307 C18.9376581,9.48085526 19.7134284,9.30451754 20.6122519,9.30451754 C21.0402631,9.30451754 21.4843247,9.34726608 21.9444368,9.43276316 C22.4045488,9.51826023 22.8486105,9.66788012 23.2766217,9.88162281 C23.7046329,10.0953655 24.0951931,10.3839181 24.4483023,10.7472807 C24.8014116,11.1106433 25.084969,11.5701901 25.2989746,12.1259211 L25.2989746,12.1259211 L30.0819998,8.72741228 C29.290179,7.23121345 28.0863975,6.02891082 26.4706553,5.12050439 C24.854913,4.21209795 22.944913,3.75789474 20.7406553,3.75789474 C18.9002071,3.75789474 17.2630643,4.08919591 15.8292267,4.75179825 C14.3953892,5.41440058 13.1755573,6.28005848 12.169731,7.34877193 C11.1639046,8.41748538 10.3988346,9.62513158 9.8745209,10.9717105 C9.35020718,12.3182895 9.08805031,13.6862427 9.08805031,15.0755702 C9.08805031,16.5290205 9.3662576,17.9610965 9.92267216,19.3717982 C10.4790867,20.7825 11.2655573,22.0435819 12.2820839,23.1550439 C13.2986105,24.2665058 14.5077422,25.1588816 15.9094788,25.8321711 C17.3112155,26.5054605 18.857406,26.8421053 20.5480502,26.8421053 Z M42.5172538,26.8421053 C44.207898,26.8421053 45.7647888,26.5214912 47.187926,25.8802632 C48.6110633,25.2390351 49.8362453,24.3894079 50.8634722,23.3313816 C51.8906991,22.2733553 52.6932201,21.0550219 53.2710352,19.6763816 C53.8488504,18.2977412 54.1377579,16.8603216 54.1377579,15.3641228 C54.1377579,13.9106725 53.8649008,12.4892836 53.3191865,11.0999561 C52.7734722,9.71062865 51.9977019,8.47092105 50.9918756,7.38083333 C49.9860493,6.29074561 48.7769176,5.41440058 47.3644807,4.75179825 C45.9520437,4.08919591 44.3791025,3.75789474 42.6456572,3.75789474 C40.9550129,3.75789474 39.3981222,4.0731652 37.9749849,4.70370614 C36.5518477,5.33424708 35.3213155,6.1785307 34.2833883,7.23655702 C33.2454611,8.29458333 32.43759,9.51826023 31.8597749,10.9075877 C31.2819597,12.2969152 30.9930522,13.7396784 30.9930522,15.2358772 C30.9930522,16.7107018 31.2712595,18.1427778 31.827674,19.5321053 C32.3840886,20.9214327 33.165209,22.1557968 34.1710354,23.2351974 C35.1768617,24.314598 36.3859933,25.1855994 37.7984303,25.8482018 C39.2108673,26.5108041 40.7838084,26.8421053 42.5172538,26.8421053 Z M42.5814555,21.2954825 C41.682632,21.2954825 40.9068616,21.1244883 40.2541446,20.7825 C39.6014275,20.4405117 39.0610633,19.991652 38.6330521,19.4359211 C38.2050409,18.8801901 37.8840325,18.2443056 37.6700269,17.5282675 C37.4560213,16.8122295 37.3490185,16.0694737 37.3490185,15.3 C37.3490185,14.5519006 37.4506712,13.8198319 37.6539765,13.1037939 C37.8572818,12.3877558 38.1729401,11.7465278 38.6009513,11.1801096 C39.0289625,10.6136915 39.5693266,10.1594883 40.2220437,9.8175 C40.8747608,9.4755117 41.6505311,9.30451754 42.5493546,9.30451754 C43.4267776,9.30451754 44.1918476,9.47016813 44.8445647,9.8014693 C45.4972818,10.1327705 46.0429961,10.570943 46.4817076,11.1159868 C46.920419,11.6610307 47.2467776,12.2915716 47.4607832,13.0076096 C47.6747888,13.7236477 47.7817916,14.4664035 47.7817916,15.2358772 C47.7817916,15.9839766 47.6801389,16.7213889 47.4768336,17.448114 C47.2735283,18.1748392 46.9632202,18.8214108 46.5459092,19.3878289 C46.1285983,19.9542471 45.5882342,20.4137939 44.9248168,20.7664693 C44.2613994,21.1191447 43.480279,21.2954825 42.5814555,21.2954825 Z M63.1382221,26.6497368 L63.1382221,15.460307 L72.190659,26.6497368 L77.1662892,26.6497368 L77.1662892,3.88614035 L70.9066254,3.88614035 L70.9066254,15.460307 L61.7578859,3.88614035 L56.8785582,3.88614035 L56.8785582,26.6497368 L63.1382221,26.6497368 Z M97.4020474,26.6497368 L97.4020474,21.1992982 L87.4186861,21.1992982 L87.4186861,17.6084211 L95.7007029,17.6084211 L95.7007029,12.5427193 L87.4186861,12.5427193 L87.4186861,9.33657895 L97.1131398,9.33657895 L97.1131398,3.88614035 L81.1590223,3.88614035 L81.1590223,26.6497368 L97.4020474,26.6497368 Z M110.254612,26.8421053 C111.217638,26.8421053 112.207413,26.7245468 113.22394,26.4894298 C114.240467,26.2543129 115.192792,25.9123246 116.080915,25.4634649 C116.969038,25.0146053 117.760859,24.4588743 118.456377,23.7962719 C119.151895,23.1336696 119.670859,22.3855702 120.013268,21.5519737 L120.013268,21.5519737 L114.909234,18.5061404 C114.716629,19.0191228 114.454472,19.4519518 114.122764,19.8046272 C113.791055,20.1573026 113.416545,20.4458553 112.999234,20.6702851 C112.581923,20.8947149 112.148562,21.0550219 111.69915,21.1512061 C111.249738,21.2473904 110.811027,21.2954825 110.383016,21.2954825 C109.569794,21.2954825 108.836825,21.1298319 108.184108,20.7985307 C107.531391,20.4672295 106.980327,20.0237135 106.530915,19.4679825 C106.081503,18.9122515 105.739094,18.2710234 105.503688,17.5442982 C105.268282,16.8175731 105.150579,16.0587865 105.150579,15.2679386 C105.150579,14.5625877 105.252231,13.8518933 105.455537,13.1358553 C105.658842,12.4198173 105.96915,11.7785892 106.386461,11.2121711 C106.803772,10.6457529 107.338786,10.1862061 107.991503,9.8335307 C108.64422,9.48085526 109.41999,9.30451754 110.318814,9.30451754 C110.746825,9.30451754 111.190887,9.34726608 111.650999,9.43276316 C112.111111,9.51826023 112.555173,9.66788012 112.983184,9.88162281 C113.411195,10.0953655 113.801755,10.3839181 114.154864,10.7472807 C114.507974,11.1106433 114.791531,11.5701901 115.005537,12.1259211 L115.005537,12.1259211 L119.788562,8.72741228 C118.996741,7.23121345 117.79296,6.02891082 116.177217,5.12050439 C114.561475,4.21209795 112.651475,3.75789474 110.447217,3.75789474 C108.606769,3.75789474 106.969626,4.08919591 105.535789,4.75179825 C104.101951,5.41440058 102.882119,6.28005848 101.876293,7.34877193 C100.870467,8.41748538 100.105397,9.62513158 99.581083,10.9717105 C99.0567693,12.3182895 98.7946124,13.6862427 98.7946124,15.0755702 C98.7946124,16.5290205 99.0728197,17.9610965 99.6292342,19.3717982 C100.185649,20.7825 100.972119,22.0435819 101.988646,23.1550439 C103.005173,24.2665058 104.214304,25.1588816 105.616041,25.8321711 C107.017778,26.5054605 108.563968,26.8421053 110.254612,26.8421053 Z M133.507849,26.6497368 L133.507849,9.33657895 L140.056421,9.33657895 L140.056421,3.88614035 L120.667513,3.88614035 L120.667513,9.33657895 L127.248186,9.33657895 L127.248186,26.6497368 L133.507849,26.6497368 Z M144.691171,26.6497368 L146.039406,22.1932018 L152.106465,22.1932018 L153.486801,26.6497368 L159.842767,26.6497368 L151.945961,3.88614035 L146.232011,3.88614035 L138.303104,26.6497368 L144.691171,26.6497368 Z M151.111339,18.0252193 L146.97033,18.0252193 L149.088986,10.9717105 L151.111339,18.0252193 Z" id="CONECTA"></path>
                <path d="M13.9387859,46.6232456 C14.7613272,46.6232456 15.5064213,46.4838158 16.1740684,46.2049561 C16.8417155,45.9260965 17.4105509,45.5324123 17.8805744,45.0239035 C18.350598,44.5153947 18.7111275,43.9029971 18.9621628,43.1867105 C19.2131981,42.470424 19.3387157,41.669386 19.3387157,40.7835965 C19.3387157,39.9852924 19.226551,39.2334649 19.0022216,38.528114 C18.7778922,37.8227632 18.441398,37.2076316 17.9927392,36.6827193 C17.5440803,36.157807 16.9805861,35.7422515 16.3022567,35.4360526 C15.6239272,35.1298538 14.8361036,34.9767544 13.9387859,34.9767544 L13.9387859,34.9767544 L10.1572327,34.9767544 L10.1572327,46.6232456 L13.9387859,46.6232456 Z M13.9387859,45.8686842 L10.9744328,45.8686842 L10.9744328,35.7313158 L13.9387859,35.7313158 C14.6758683,35.7313158 15.3274919,35.857076 15.8936567,36.1085965 C16.4598214,36.360117 16.9378567,36.7100585 17.3277626,37.1584211 C17.7176686,37.6067836 18.0141039,38.1398977 18.2170686,38.7577632 C18.4200333,39.3756287 18.5215157,40.0509064 18.5215157,40.7835965 C18.5215157,41.5053509 18.4227039,42.1751608 18.2250804,42.7930263 C18.0274568,43.4108918 17.7363627,43.9494737 17.3517979,44.4087719 C16.9672332,44.8680702 16.4891979,45.2262135 15.917692,45.4832018 C15.346186,45.7401901 14.6865507,45.8686842 13.9387859,45.8686842 L13.9387859,45.8686842 Z M37.6597151,46.6232456 L37.6597151,34.9767544 L36.842515,34.9767544 L36.842515,46.6232456 L37.6597151,46.6232456 Z M60.4512795,46.7052632 C61.9040796,46.7052632 63.1806209,46.0709942 64.2809033,44.8024561 L64.2809033,44.8024561 L64.2809033,46.6232456 L64.9859387,46.6232456 L64.9859387,40.9640351 L61.7011149,40.9640351 L61.7011149,41.6365789 L64.2809033,41.6365789 L64.2809033,43.8838596 C63.7040562,44.5946784 63.1031738,45.1141228 62.4782561,45.442193 C61.8533384,45.7702632 61.1937031,45.9342982 60.4993501,45.9342982 C59.8584089,45.9342982 59.2601971,45.7948684 58.7047147,45.5160088 C58.1492323,45.2371491 57.6658558,44.8626023 57.2545851,44.3923684 C56.8433145,43.9221345 56.5201733,43.3780848 56.2851615,42.7602193 C56.0501498,42.1423538 55.9326439,41.4889474 55.9326439,40.8 C55.9326439,40.1547953 56.0341262,39.5259942 56.2370909,38.9135965 C56.4400557,38.3011988 56.7338204,37.7544152 57.1183851,37.2732456 C57.5029499,36.792076 57.9676323,36.4038596 58.5124323,36.1085965 C59.0572323,35.8133333 59.6661265,35.6657018 60.3391148,35.6657018 C61.1402913,35.6657018 61.8586796,35.8379386 62.4942796,36.1824123 C63.1298797,36.526886 63.6399621,37.0818713 64.0245268,37.8473684 L64.0245268,37.8473684 L64.6975151,37.4372807 C64.5159151,37.0654678 64.2942562,36.7237281 64.0325386,36.4120614 C63.7708209,36.1003947 63.4610327,35.8324708 63.1031738,35.6082895 C62.745315,35.3841082 62.3393855,35.2091374 61.8853855,35.0833772 C61.4313854,34.957617 60.9213031,34.8947368 60.3551383,34.8947368 C59.5966912,34.8947368 58.896997,35.056038 58.2560558,35.3786404 C57.6151146,35.7012427 57.0623028,36.1359357 56.5976204,36.6827193 C56.132938,37.2295029 55.769738,37.8583041 55.5080203,38.5691228 C55.2463026,39.2799415 55.1154438,40.0180994 55.1154438,40.7835965 C55.1154438,41.5162865 55.2489732,42.2380409 55.5160321,42.9488596 C55.7830909,43.6596784 56.1516321,44.2939474 56.6216557,44.8516667 C57.0916792,45.409386 57.6551734,45.8577485 58.3121382,46.1967544 C58.9691029,46.5357602 59.68215,46.7052632 60.4512795,46.7052632 Z M83.4671733,46.6232456 L83.4671733,34.9767544 L82.6499733,34.9767544 L82.6499733,46.6232456 L83.4671733,46.6232456 Z M105.489608,46.6232456 L105.489608,35.7313158 L109.655726,35.7313158 L109.655726,34.9767544 L100.50629,34.9767544 L100.50629,35.7313158 L104.672408,35.7313158 L104.672408,46.6232456 L105.489608,46.6232456 Z M125.706725,46.6232456 L127.293055,42.7848246 L132.725032,42.7848246 L134.311361,46.6232456 L135.176632,46.6232456 L130.369573,34.9767544 L129.664537,34.9767544 L124.825431,46.6232456 L125.706725,46.6232456 Z M132.500702,42.0958772 L127.485337,42.0958772 L130.017055,35.9937719 L132.500702,42.0958772 Z M160.91195,46.5412281 L160.91195,45.7866667 L154.117973,45.7866667 L154.117973,34.8947368 L153.300773,34.8947368 L153.300773,46.5412281 L160.91195,46.5412281 Z" id="DIGITAL"></path>
            </g>
        </g>
    </g>
</svg>