<?xml version="1.0" encoding="UTF-8"?>
<svg width="40px" height="40px" viewBox="0 0 40 40" version="1.1" xmlns="http://www.w3.org/2000/svg" xmlns:xlink="http://www.w3.org/1999/xlink">
    <!-- Generator: Sketch 64 (93537) - https://sketch.com -->
    <title>facebook copy</title>
    <desc>Created with Sketch.</desc>
    <g id="Landing" stroke="none" stroke-width="1" fill="none" fill-rule="evenodd">
        <g id="Desktop-Copy-5" transform="translate(-270.000000, -2436.000000)" fill="#0BCDB5" fill-rule="nonzero">
            <g id="Gratis-Copy-4" transform="translate(0.000000, 1831.000000)">
                <g id="Gratis-Copy-6" transform="translate(110.000000, 530.000000)">
                    <g id="facebook-copy" transform="translate(160.000000, 75.000000)">
                        <path d="M37.1151734,-2.22044605e-15 L2.88482664,-2.22044605e-15 C1.29150391,-2.22044605e-15 2.22044605e-15,1.29150391 2.22044605e-15,2.88482664 L2.22044605e-15,37.1151734 C2.22044605e-15,38.7084961 1.29150391,40 2.88482664,40 L21.3671875,40 L21.3671875,24.53125 L16.171875,24.53125 L16.171875,18.4765625 L21.3671875,18.4765625 L21.3671875,14.0206909 C21.3671875,8.85345461 24.5217895,6.04095461 29.1311645,6.04095461 C31.3388062,6.04095461 33.236084,6.20544438 33.7890625,6.27899172 L33.7890625,11.6796875 L30.6106567,11.6796875 C28.1027222,11.6796875 27.6171875,12.8713989 27.6171875,14.6203613 L27.6171875,18.4765625 L33.6132812,18.4765625 L32.8320312,24.53125 L27.6171875,24.53125 L27.6171875,40 L37.1151734,40 C38.7084961,40 40,38.7084961 40,37.1151734 L40,2.88482664 C40,1.29150391 38.7084961,-2.22044605e-15 37.1151734,-2.22044605e-15 Z" id="Path"></path>
                    </g>
                </g>
            </g>
        </g>
    </g>
</svg>