<?xml version="1.0" encoding="UTF-8"?>
<svg width="369px" height="279px" viewBox="0 0 369 279" version="1.1" xmlns="http://www.w3.org/2000/svg" xmlns:xlink="http://www.w3.org/1999/xlink">
    <!-- Generator: Sketch 64 (93537) - https://sketch.com -->
    <title>footer_logo</title>
    <desc>Created with Sketch.</desc>
    <g id="Landing" stroke="none" stroke-width="1" fill="none" fill-rule="evenodd">
        <g id="Desktop-Copy-3" transform="translate(-599.000000, -3078.000000)">
            <g id="Gratis-Copy-4" transform="translate(0.000000, 2999.000000)">
                <g id="Background">
                    <g id="footer_logo" transform="translate(600.000000, 80.000000)">
                        <path d="M28.0847201,56 C30.4447806,56 32.8703984,55.7148148 35.3615734,55.1444444 C37.8527484,54.5740741 40.186586,53.7444444 42.3630862,52.6555556 C44.5395865,51.5666667 46.4800807,50.2185185 48.1845688,48.6111111 C49.889057,47.0037037 51.1608674,45.1888889 52,43.1666667 L52,43.1666667 L39.4916793,35.7777778 C39.0196672,37.0222222 38.3772063,38.0722222 37.5642965,38.9277778 C36.7513868,39.7833333 35.8335855,40.4833333 34.8108926,41.0277778 C33.7881997,41.5722222 32.7261725,41.9611111 31.6248109,42.1944444 C30.5234493,42.4277778 29.4483106,42.5444444 28.3993949,42.5444444 C26.4064549,42.5444444 24.6101866,42.1425926 23.01059,41.3388889 C21.4109934,40.5351852 20.0605144,39.4592593 18.9591528,38.1111111 C17.8577912,36.762963 17.0186586,35.2074074 16.4417549,33.4444444 C15.8648512,31.6814815 15.5763994,29.8407407 15.5763994,27.9222222 C15.5763994,26.2111111 15.8255169,24.487037 16.3237519,22.75 C16.8219869,21.012963 17.5824508,19.4574074 18.6051437,18.0833333 C19.6278366,16.7092593 20.9389813,15.5944444 22.5385779,14.7388889 C24.1381745,13.8833333 26.0393343,13.4555556 28.2420575,13.4555556 C29.2909733,13.4555556 30.3792234,13.5592593 31.5068079,13.7666667 C32.6343923,13.9740741 33.7226425,14.337037 34.7715582,14.8555556 C35.820474,15.3740741 36.7776097,16.0740741 37.6429652,16.9555556 C38.5083207,17.837037 39.2032274,18.9518519 39.7276853,20.3 L39.7276853,20.3 L51.4493192,12.0555556 C49.508825,8.42592593 46.5587494,5.50925926 42.5990923,3.30555556 C38.6394352,1.10185185 33.9586485,0 28.5567322,0 C24.0463944,0 20.0342915,0.803703704 16.5204236,2.41111111 C13.0065557,4.01851852 10.0171457,6.11851852 7.55219365,8.71111111 C5.08724155,11.3037037 3.21230459,14.2333333 1.92738275,17.5 C0.642460918,20.7666667 0,24.0851852 0,27.4555556 C0,30.9814815 0.68179526,34.4555556 2.04538578,37.8777778 C3.4089763,41.3 5.33635905,44.3592593 7.82753404,47.0555556 C10.318709,49.7518519 13.2818961,51.9166667 16.7170953,53.55 C20.1522945,55.1833333 23.9415028,56 28.0847201,56 Z M81.8834951,56 C85.97411,56 89.7411003,55.2222222 93.184466,53.6666667 C96.6278317,52.1111111 99.592233,50.05 102.07767,47.4833333 C104.563107,44.9166667 106.504854,41.9611111 107.902913,38.6166667 C109.300971,35.2722222 110,31.7851852 110,28.1555556 C110,24.6296296 109.339806,21.1814815 108.019417,17.8111111 C106.699029,14.4407407 104.822006,11.4333333 102.38835,8.78888889 C99.9546926,6.14444444 97.0291262,4.01851852 93.6116505,2.41111111 C90.1941748,0.803703704 86.3883495,0 82.1941748,0 C78.1035599,0 74.3365696,0.764814815 70.8932039,2.29444444 C67.4498382,3.82407407 64.4724919,5.87222222 61.961165,8.43888889 C59.4498382,11.0055556 57.4951456,13.9740741 56.0970874,17.3444444 C54.6990291,20.7148148 54,24.2148148 54,27.8444444 C54,31.4222222 54.6731392,34.8962963 56.0194175,38.2666667 C57.3656958,41.637037 59.2556634,44.6314815 61.6893204,47.25 C64.1229773,49.8685185 67.0485437,51.9814815 70.4660194,53.5888889 C73.8834951,55.1962963 77.6893204,56 81.8834951,56 Z M81.5384615,43 C79.3846154,43 77.525641,42.5864528 75.9615385,41.7593583 C74.3974359,40.9322638 73.1025641,39.8467023 72.0769231,38.5026738 C71.0512821,37.1586453 70.2820513,35.6207665 69.7692308,33.8890374 C69.2564103,32.1573084 69,30.3609626 69,28.5 C69,26.6907308 69.2435897,24.9202317 69.7307692,23.1885027 C70.2179487,21.4567736 70.974359,19.9059715 72,18.5360963 C73.025641,17.166221 74.3205128,16.0677362 75.8846154,15.2406417 C77.4487179,14.4135472 79.3076923,14 81.4615385,14 C83.5641026,14 85.3974359,14.4006239 86.9615385,15.2018717 C88.525641,16.0031194 89.8333333,17.0628342 90.8846154,18.381016 C91.9358974,19.6991979 92.7179487,21.2241533 93.2307692,22.9558824 C93.7435897,24.6876114 94,26.4839572 94,28.3449198 C94,30.1541889 93.7564103,31.9376114 93.2692308,33.6951872 C92.7820513,35.4527629 92.0384615,37.0164884 91.0384615,38.3863636 C90.0384615,39.7562389 88.7435897,40.8676471 87.1538462,41.7205882 C85.5641026,42.5735294 83.6923077,43 81.5384615,43 Z M131.118671,56 L131.118671,28.9647887 L152.982595,56 L165,56 L165,1 L149.881329,1 L149.881329,28.9647887 L127.78481,1 L116,1 L116,56 L131.118671,56 Z M215,56 L215,42.8309859 L191.029644,42.8309859 L191.029644,34.1549296 L210.91502,34.1549296 L210.91502,21.915493 L191.029644,21.915493 L191.029644,14.1690141 L214.306324,14.1690141 L214.306324,1 L176,1 L176,56 L215,56 Z M245.08472,56 C247.444781,56 249.870398,55.7148148 252.361573,55.1444444 C254.852748,54.5740741 257.186586,53.7444444 259.363086,52.6555556 C261.539586,51.5666667 263.480081,50.2185185 265.184569,48.6111111 C266.889057,47.0037037 268.160867,45.1888889 269,43.1666667 L269,43.1666667 L256.491679,35.7777778 C256.019667,37.0222222 255.377206,38.0722222 254.564297,38.9277778 C253.751387,39.7833333 252.833585,40.4833333 251.810893,41.0277778 C250.7882,41.5722222 249.726172,41.9611111 248.624811,42.1944444 C247.523449,42.4277778 246.448311,42.5444444 245.399395,42.5444444 C243.406455,42.5444444 241.610187,42.1425926 240.01059,41.3388889 C238.410993,40.5351852 237.060514,39.4592593 235.959153,38.1111111 C234.857791,36.762963 234.018659,35.2074074 233.441755,33.4444444 C232.864851,31.6814815 232.576399,29.8407407 232.576399,27.9222222 C232.576399,26.2111111 232.825517,24.487037 233.323752,22.75 C233.821987,21.012963 234.582451,19.4574074 235.605144,18.0833333 C236.627837,16.7092593 237.938981,15.5944444 239.538578,14.7388889 C241.138174,13.8833333 243.039334,13.4555556 245.242057,13.4555556 C246.290973,13.4555556 247.379223,13.5592593 248.506808,13.7666667 C249.634392,13.9740741 250.722642,14.337037 251.771558,14.8555556 C252.820474,15.3740741 253.77761,16.0740741 254.642965,16.9555556 C255.508321,17.837037 256.203227,18.9518519 256.727685,20.3 L256.727685,20.3 L268.449319,12.0555556 C266.508825,8.42592593 263.558749,5.50925926 259.599092,3.30555556 C255.639435,1.10185185 250.958649,0 245.556732,0 C241.046394,0 237.034291,0.803703704 233.520424,2.41111111 C230.006556,4.01851852 227.017146,6.11851852 224.552194,8.71111111 C222.087242,11.3037037 220.212305,14.2333333 218.927383,17.5 C217.642461,20.7666667 217,24.0851852 217,27.4555556 C217,30.9814815 217.681795,34.4555556 219.045386,37.8777778 C220.408976,41.3 222.336359,44.3592593 224.827534,47.0555556 C227.318709,49.7518519 230.281896,51.9166667 233.717095,53.55 C237.152295,55.1833333 240.941503,56 245.08472,56 Z M302.125828,56 L302.125828,14.1690141 L318,14.1690141 L318,1 L271,1 L271,14.1690141 L286.951987,14.1690141 L286.951987,56 L302.125828,56 Z M329.421759,56 L332.676602,45.2323944 L347.323398,45.2323944 L350.655738,56 L366,56 L346.935917,1 L333.14158,1 L314,56 L329.421759,56 Z M345,35 L335,35 L340.116279,18 L345,35 Z" id="CONECTA" stroke="#515259" stroke-width="2" fill-rule="nonzero"></path>
                        <g id="Group-4" transform="translate(72.000000, 91.000000)">
                            <g id="yellow_stroke_dark" transform="translate(102.000000, 63.000000)" stroke="#FFD24F">
                                <g id="Group-6">
                                    <path d="M-3.9909623e-12,92.9511381 L0.42577019,30.0488619 L60.3910252,1.13955983e-12 L120,30.0488619 L119.57423,92.9511381 L59.6089748,123 L-3.9909623e-12,92.9511381 Z" id="Combined-Shape" fill="#1B1B1F"></path>
                                    <polyline id="Line-8" stroke-linecap="square" points="59.6858639 121.757576 59.6858639 60.7977602 119.371728 29.8181818"></polyline>
                                    <line x1="1.2565445" y1="29.8181818" x2="59.3717277" y2="60.5681818" id="Line-9" stroke-linecap="square"></line>
                                </g>
                            </g>
                            <g id="green_outline_dark" stroke="#0BCDB5">
                                <path d="M-2.04474483e-12,80.8599331 L0.361904662,26.1400669 L51.3323714,5.39330645e-13 L102,26.1400669 L101.638095,80.8599331 L50.6676286,107 L-2.04474483e-12,80.8599331 Z" id="Combined-Shape-Copy" fill="#1B1B1F" fill-rule="evenodd"></path>
                                <polyline id="Line-8-Copy" stroke-linecap="square" points="50.7329843 105.919192 50.7329843 52.8891085 101.465969 25.9393939"></polyline>
                                <line x1="1.06806283" y1="25.9393939" x2="50.4659686" y2="52.6893939" id="Line-9-Copy" stroke-linecap="square"></line>
                            </g>
                            <line x1="83.3035714" y1="65.3055556" x2="116.696429" y2="86.6944444" id="Line" stroke="#515259" stroke-linecap="square"></line>
                        </g>
                    </g>
                </g>
            </g>
        </g>
    </g>
</svg>