<?xml version="1.0" encoding="UTF-8"?>
<svg width="160px" height="80px" viewBox="0 0 160 80" version="1.1" xmlns="http://www.w3.org/2000/svg" xmlns:xlink="http://www.w3.org/1999/xlink">
    <!-- Generator: Sketch 64 (93537) - https://sketch.com -->
    <title>godaddy_logo</title>
    <desc>Created with Sketch.</desc>
    <g id="godaddy_logo" stroke="none" stroke-width="1" fill="none" fill-rule="evenodd">
        <g id="GoDaddy_logo-Copy" transform="translate(5.000000, 25.000000)" fill="#FFFFFF" fill-rule="nonzero">
            <path d="M30.0044782,1.37105818 C26.3895062,-0.816605906 21.6304812,-0.295393509 17.3859852,2.28782081 C13.1547579,-0.295393509 8.39278429,-0.816605906 4.78223526,1.37105818 C-0.929184486,4.82819575 -1.62357754,13.7316459 3.23275096,21.2585241 C6.8123398,26.8076511 12.4102388,30.0591597 17.3933567,29.9991846 C22.3764746,30.0591597 27.9743736,26.8076511 31.5539624,21.2585241 C36.4043938,13.7316459 35.7158979,4.82819575 30.0044782,1.37105818 Z M5.85847078,19.6691833 C4.85711301,18.1316258 4.10159342,16.4562247 3.61754202,14.6998158 C3.18748316,13.1751581 3.02305353,11.5916883 3.13102459,10.0146161 C3.34774599,7.23291267 4.51686211,5.06666827 6.42165156,3.91428908 C8.326441,2.76190989 10.8445373,2.69193891 13.5262803,3.72293987 C13.9287629,3.8785896 14.3268226,4.05851498 14.7219337,4.25700408 C13.231697,5.5731344 11.9358812,7.08195334 10.8710746,8.74085868 C7.92248411,13.310392 7.02316402,18.3954258 8.05222209,22.4494587 C7.23168456,21.5921097 6.4971314,20.6611654 5.85847078,19.6691833 L5.85847078,19.6691833 Z M31.1706457,14.6983878 C30.6859558,16.4545805 29.930477,18.1298911 28.9297169,19.6677553 C28.2905111,20.6611476 27.556009,21.5939396 26.7359656,22.4537426 C27.6559258,18.8195357 27.0308247,14.3670966 24.775153,10.1916855 C24.7022988,10.0526189 24.5720359,9.94995108 24.4166473,9.90912641 C24.2612587,9.86830174 24.0952879,9.89314113 23.9598677,9.97748864 L16.9274794,14.2328666 C16.7979331,14.311159 16.70586,14.4361474 16.6715653,14.5802678 C16.6372705,14.7243882 16.6635711,14.8758026 16.7446668,15.0011194 L17.7766735,16.599028 C17.8572259,16.7244086 17.9860074,16.8135613 18.1345624,16.8467868 C18.2831174,16.8800123 18.4392172,16.8545757 18.56837,16.7760975 L23.1268909,14.0172417 C23.2743204,14.4456355 23.4217499,14.8740292 23.5323221,15.302423 C23.9623018,16.8251536 24.1272256,18.4066539 24.0203138,19.9819107 C23.8035924,22.7621861 22.6344763,24.9284305 20.7296868,26.0822377 C19.7472087,26.6640606 18.6214574,26.9796854 17.4700201,26.9961444 L17.3240648,26.9961444 C16.1725737,26.9800348 15.046729,26.6643839 14.0643981,26.0822377 C12.1581343,24.9284305 10.9890182,22.7621861 10.7722968,19.9819107 C10.6649875,18.4048495 10.8294062,16.8214856 11.2588142,15.296711 C12.2468603,11.7690655 14.2892876,8.6029505 17.1294579,6.1961998 C18.3542504,5.15490429 19.7492845,4.31812044 21.2574845,3.72008392 C23.9318561,2.68908296 26.4543752,2.75762596 28.360639,3.91143312 C30.2669027,5.06524029 31.4345445,7.23005672 31.6512659,10.0117601 C31.7606313,11.5889775 31.5982053,13.1728275 31.1706457,14.6983878 L31.1706457,14.6983878 Z M67.470743,11.3754802 C63.7732105,11.3754802 60.7848141,14.1714635 60.7848141,17.7285596 C60.7848141,21.26138 63.7732105,24.0116679 67.470743,24.0116679 C71.1933385,24.0116679 74.1817349,21.265664 74.1817349,17.7285596 C74.1817349,14.1728914 71.1977613,11.3769082 67.470743,11.3769082 L67.470743,11.3754802 Z M67.470743,20.6901884 C65.7664577,20.6901884 64.4690779,19.3550278 64.4690779,17.7042839 C64.4690779,16.05354 65.7664577,14.6983878 67.470743,14.6983878 C69.2000913,14.6983878 70.4974711,16.0578239 70.4974711,17.7085679 C70.4974711,19.3593118 69.2000913,20.6959003 67.470743,20.6959003 L67.470743,20.6901884 Z M82.5188745,6.49597833 L75.7150019,6.49597833 C75.5664808,6.49331913 75.4232228,6.5493501 75.3183225,6.65122443 C75.2134221,6.75309877 75.1559535,6.89200413 75.1591926,7.03585155 L75.1591926,23.1020452 C75.1484852,23.2507511 75.2024309,23.3970242 75.3079885,23.5055032 C75.4135462,23.6139822 75.5611083,23.6747938 75.7150019,23.673266 L82.5188745,23.673266 C87.9634468,23.673266 91.7464883,20.16612 91.7464883,15.0639504 C91.7464883,9.93036533 87.9634468,6.49597833 82.5188745,6.49597833 Z M82.6795726,20.2803583 L78.9569772,20.2803583 L78.9569772,9.88038605 L82.6795726,9.88038605 C85.6930321,9.88038605 87.7703141,12.0637662 87.7703141,15.0568105 C87.7703141,17.9998756 85.6930321,20.2803583 82.6795726,20.2803583 Z M105.289364,11.7210512 L102.731462,11.7210512 C102.438294,11.7435054 102.209578,11.9761127 102.200716,12.2608273 L102.200716,12.9962366 C101.618369,12.0637662 100.301824,11.3769082 98.6624073,11.3769082 C95.4720324,11.3769082 92.483636,13.8044728 92.483636,17.6814363 C92.483636,21.53698 95.4454951,24.008812 98.6373443,24.008812 C100.282658,24.008812 101.625741,23.323382 102.208087,22.3909116 L102.208087,23.1505965 C102.20969,23.4340981 102.446142,23.6637582 102.738834,23.666097 L105.296736,23.666097 C105.438864,23.6692538 105.576138,23.6159567 105.676664,23.5185888 C105.77719,23.421221 105.832216,23.2882592 105.828956,23.1505965 L105.828956,12.2608273 C105.833336,12.119382 105.778473,11.9822329 105.676845,11.8805703 C105.575217,11.7789077 105.435463,11.7213732 105.289364,11.7210512 L105.289364,11.7210512 Z M99.3391088,20.71732 C97.6451436,20.71732 96.3728268,19.4564144 96.3728268,17.7071399 C96.3728268,15.9578654 97.6451436,14.6983878 99.3391088,14.6983878 C101.033074,14.6983878 102.305391,15.9564374 102.305391,17.7057119 C102.305391,19.4549864 101.034548,20.715892 99.3391088,20.715892 L99.3391088,20.71732 Z M119.647526,6.49607542 L117.089623,6.49607542 C116.944996,6.49185112 116.804677,6.54406438 116.70017,6.64099228 C116.595663,6.73792019 116.535725,6.87144073 116.533814,7.0115759 L116.533814,12.9476853 C115.944096,12.0637662 114.608385,11.3769082 112.938008,11.3769082 C109.771222,11.3769082 106.834426,13.8044728 106.834426,17.6814363 C106.834426,21.53698 109.796285,24.008812 112.988134,24.008812 C114.633448,24.008812 115.874804,23.323382 116.558877,22.3909116 L116.558877,23.1505965 C116.559682,23.4344194 116.796598,23.6645299 117.089623,23.666097 L119.647526,23.666097 C119.789777,23.6696672 119.927302,23.6165031 120.027923,23.5190432 C120.128544,23.4215834 120.183432,23.2883792 120.179746,23.1505965 L120.179746,7.01443186 C120.184258,6.87616085 120.129735,6.74220123 120.02902,6.6441102 C119.928305,6.54601916 119.790304,6.49246928 119.647526,6.49607542 L119.647526,6.49607542 Z M113.69727,20.7473075 C112.010676,20.7473075 110.74868,19.4735501 110.74868,17.7057119 C110.74868,15.9378737 112.015099,14.6641163 113.69727,14.6641163 C115.379441,14.6641163 116.645861,15.9378737 116.645861,17.7057119 C116.645861,19.4735501 115.385338,20.7473075 113.69727,20.7473075 Z M134.002738,6.49607542 L131.449259,6.49607542 C131.304493,6.49185306 131.164022,6.54402276 131.059282,6.64090964 C130.954542,6.73779653 130.894278,6.87131157 130.891975,7.0115759 L130.891975,12.9476853 C130.309629,12.0637662 128.966546,11.3769082 127.296169,11.3769082 C124.129383,11.3769082 121.192587,13.8044728 121.192587,17.6814363 C121.192587,21.53698 124.155921,24.008812 127.346295,24.008812 C128.993083,24.008812 130.232965,23.323382 130.917038,22.3909116 L130.917038,23.1505965 C130.91865,23.4346505 131.155992,23.6645362 131.449259,23.666097 L134.002738,23.666097 C134.144862,23.6696851 134.28225,23.6164786 134.382641,23.5189711 C134.483033,23.4214636 134.537583,23.2882449 134.533485,23.1505965 L134.533485,7.01443186 C134.538412,6.87629599 134.484228,6.74232046 134.383743,6.64418066 C134.283257,6.54604086 134.145391,6.49244893 134.002738,6.49607542 L134.002738,6.49607542 Z M128.052483,20.7473075 C126.364415,20.7473075 125.103892,19.4735501 125.103892,17.7057119 C125.103892,15.9378737 126.370312,14.6641163 128.052483,14.6641163 C129.734654,14.6641163 131.001073,15.9378737 131.001073,17.7057119 C131.001073,19.4735501 129.743499,20.7473075 128.056906,20.7473075 L128.052483,20.7473075 Z M148.008543,12.556419 L144.191593,25.2354461 C143.454445,27.4916532 141.810606,28.8410935 139.252704,28.8410935 C138.089485,28.8410935 137.030941,28.6111888 136.200913,28.1513795 C135.717344,27.8843474 135.316335,27.640163 135.316335,27.2488967 C135.316335,27.0061402 135.397422,26.8804781 135.544851,26.6534294 L136.302639,25.5538854 C136.516412,25.2468699 136.674161,25.1469114 136.904151,25.1469114 C137.086402,25.1512501 137.262694,25.2106642 137.40836,25.3168409 C137.884558,25.6152885 138.326846,25.8723248 139.000599,25.8723248 C139.787873,25.8723248 140.389385,25.6281403 140.71373,24.7199456 L141.041024,23.6675249 L139.495962,23.6675249 C139.169531,23.677653 138.882012,23.4609858 138.811889,23.1520245 L135.395947,12.556419 C135.269158,12.1394491 135.385627,11.7224747 136.0181,11.7224747 L138.708689,11.7224747 C139.037457,11.7224747 139.267447,11.8310056 139.411928,12.286531 L141.934447,20.8187065 L144.293319,12.286531 C144.368508,11.9923672 144.571961,11.7224747 144.977392,11.7224747 L147.529397,11.7224747 C148.032132,11.7210512 148.183984,12.0637662 148.008543,12.556419 Z M59.8206949,16.327712 L59.8206949,23.1006172 C59.823038,23.2497811 59.762925,23.3935222 59.6540158,23.49901 C59.5451066,23.6044977 59.3967032,23.6627222 59.2427013,23.660385 L57.1315105,23.660385 C56.9773858,23.6631249 56.8287394,23.6050297 56.7197385,23.4994531 C56.6107375,23.3938765 56.5507581,23.2498999 56.5535868,23.1006172 L56.5535868,21.3227831 C55.2134524,22.9621032 52.8825916,23.9945322 50.2465517,23.9945322 C45.2958683,23.9945322 41.4273176,20.3874568 41.4273176,15.2524437 C41.4273176,9.91608553 45.603996,6.23761119 50.8804987,6.23761119 C54.7755867,6.23761119 57.8892982,7.85979553 59.2721872,11.1227279 C59.3109199,11.2089466 59.332431,11.3014944 59.3355819,11.395472 C59.3355819,11.5496937 59.2309069,11.666788 58.8932933,11.7795984 L56.4282717,12.6992169 C56.2795756,12.758933 56.1129666,12.7614864 55.9623944,12.7063568 C55.8303947,12.6308616 55.7270052,12.5161996 55.6675353,12.3793496 C54.7829582,10.7500254 53.2084109,9.64334151 50.7846695,9.64334151 C47.6414721,9.64334151 45.3902232,12.0209268 45.3902232,15.1039339 C45.3902232,18.0926943 47.306807,20.5502464 50.8746015,20.5502464 C52.7513793,20.5502464 54.247789,19.6934589 54.9451307,18.7524206 L52.7189449,18.7524206 C52.5649429,18.7547578 52.4165396,18.6965333 52.3076304,18.5910456 C52.1987212,18.4855578 52.1386081,18.3418167 52.1410211,18.1926528 L52.1410211,16.3519877 C52.1386081,16.2028238 52.1987212,16.0590826 52.3076304,15.9535949 C52.4165396,15.8481072 52.5649429,15.7898826 52.7189449,15.7922198 L59.2427013,15.7922198 C59.3938506,15.7847494 59.5414969,15.8379467 59.6508598,15.9392801 C59.7602227,16.0406134 59.8216332,16.1811239 59.8206949,16.327712 L59.8206949,16.327712 Z M148.077835,9.21351978 L148.077835,9.04930218 C148.077671,9.03778617 148.081866,9.02661062 148.089629,9.01788664 C148.098184,9.01057867 148.109183,9.00652029 148.12059,9.0064628 L149.198299,9.0064628 C149.209785,9.00608567 149.220944,9.01020314 149.22926,9.01788664 C149.237022,9.02661062 149.241218,9.03778617 149.241059,9.04930218 L149.241059,9.21351978 C149.240981,9.22456557 149.236793,9.23521445 149.22926,9.24350734 C149.220944,9.25119084 149.209785,9.25530831 149.198299,9.25493118 L148.804663,9.25493118 L148.804663,10.2845042 C148.803897,10.3078496 148.784536,10.3266019 148.760434,10.3273435 L148.556981,10.3273435 C148.545718,10.3272931 148.535004,10.3226233 148.527495,10.3144917 C148.519022,10.3066756 148.514226,10.2958375 148.514226,10.2845042 L148.514226,9.25493118 L148.12059,9.25493118 C148.108999,9.25579872 148.097596,9.2517152 148.089376,9.24375316 C148.081155,9.23579112 148.076939,9.22474633 148.077835,9.21351978 L148.077835,9.21351978 Z M149.961984,9.04359026 L150.256843,9.70474462 L150.551702,9.04359026 C150.556215,9.03187482 150.564481,9.02186644 150.575291,9.01503068 C150.587567,9.00887601 150.601286,9.00592319 150.615097,9.0064628 L150.957134,9.0064628 C150.968453,9.00563966 150.979597,9.00953639 150.987763,9.01717319 C150.995929,9.02480999 151.00034,9.03546033 150.999888,9.04644622 L150.999888,10.2859321 C151.000738,10.2968959 150.996715,10.3076896 150.98883,10.3155991 C150.980946,10.3235087 150.96995,10.3277816 150.958608,10.3273435 L150.76695,10.3273435 C150.755464,10.3277207 150.744305,10.3236032 150.735989,10.3159197 C150.727571,10.3081706 150.723233,10.2971425 150.724195,10.2859321 L150.724195,9.35060578 L150.407221,10.0303239 C150.402609,10.0431559 150.39445,10.0545161 150.383633,10.0631674 C150.371492,10.0696742 150.35767,10.0726491 150.343827,10.0717353 L150.187551,10.0717353 C150.174195,10.0724457 150.160904,10.069475 150.14922,10.0631674 C150.137956,10.0549228 150.129695,10.0434197 150.125631,10.0303239 L149.810132,9.35060578 L149.810132,10.2859321 C149.810794,10.2968496 149.806709,10.3075374 149.798867,10.315405 C149.791024,10.3232726 149.78014,10.3276019 149.768852,10.3273435 L149.57277,10.3273435 C149.561738,10.3272058 149.551244,10.3227033 149.543726,10.3148818 C149.536207,10.3070603 149.532319,10.2966005 149.532964,10.2859321 L149.532964,9.04644622 C149.532512,9.03546033 149.536924,9.02480999 149.54509,9.01717319 C149.553256,9.00953639 149.5644,9.00563966 149.575719,9.0064628 L149.907435,9.0064628 C149.920758,9.00610568 149.933953,9.00905512 149.945767,9.01503068 C149.953855,9.02287177 149.959479,9.03277547 149.961984,9.04359026 L149.961984,9.04359026 Z" id="Path_27"></path>
        </g>
    </g>
</svg>