<?xml version="1.0" encoding="UTF-8"?>
<svg width="501px" height="147px" viewBox="0 0 501 147" version="1.1" xmlns="http://www.w3.org/2000/svg" xmlns:xlink="http://www.w3.org/1999/xlink">
    <!-- Generator: Sketch 64 (93537) - https://sketch.com -->
    <title>imagotivo_conecta</title>
    <desc>Created with Sketch.</desc>
    <g id="imagotivo_conecta" stroke="none" stroke-width="1" fill="none" fill-rule="evenodd">
        <g id="Group-20-Copy-6" transform="translate(-26.000000, 7.000000)">
            <path d="M34,99.7524409 L34.4541549,32.2475591 L98.4170935,4.64694949e-12 L162,32.2475591 L161.545845,99.7524409 L97.5829065,132 L34,99.7524409 Z" id="Combined-Shape" fill="#FFD24F"></path>
            <polygon id="Rectangle" fill="#FBD874" transform="translate(66.394895, 82.240700) rotate(-45.000000) translate(-66.394895, -82.240700) " points="79.4602877 24.6373843 31.3723443 72.08331 53.495845 139.844015 101.417445 93.1016664"></polygon>
            <polygon id="Rectangle" fill="#F6C73E" transform="translate(130.450130, 82.430640) rotate(-45.000000) translate(-130.450130, -82.430640) " points="72.3914976 94.605756 140.42082 116.997874 188.508763 69.5519479 120.313098 47.8634074"></polygon>
        </g>
        <path d="M206.436941,82 C208.238365,82 210.089828,81.7810185 211.991331,81.3430556 C213.892833,80.9050926 215.674241,80.2680556 217.335554,79.4319444 C218.996867,78.5958333 220.478037,77.5606481 221.779066,76.3263889 C223.080094,75.0921296 224.050861,73.6986111 224.691367,72.1458333 L224.691367,72.1458333 L215.143822,66.4722222 C214.783537,67.4277778 214.29315,68.2340278 213.672659,68.8909722 C213.052169,69.5479167 212.351615,70.0854167 211.570998,70.5034722 C210.790381,70.9215278 209.979741,71.2201389 209.139076,71.3993056 C208.298412,71.5784722 207.477764,71.6680556 206.677131,71.6680556 C205.155929,71.6680556 203.784845,71.3594907 202.56388,70.7423611 C201.342915,70.1252315 200.312101,69.2990741 199.471436,68.2638889 C198.630772,67.2287037 197.990266,66.0342593 197.549918,64.6805556 C197.10957,63.3268519 196.889396,61.9134259 196.889396,60.4402778 C196.889396,59.1263889 197.079546,57.8025463 197.459847,56.46875 C197.840147,55.1349537 198.420606,53.9405093 199.201223,52.8854167 C199.98184,51.8303241 200.982631,50.9743056 202.203596,50.3173611 C203.42456,49.6604167 204.875707,49.3319444 206.557036,49.3319444 C207.357669,49.3319444 208.188325,49.4115741 209.049005,49.5708333 C209.909685,49.7300926 210.740342,50.0087963 211.540975,50.4069444 C212.341607,50.8050926 213.072185,51.3425926 213.732707,52.0194444 C214.393229,52.6962963 214.923648,53.5523148 215.323964,54.5875 L215.323964,54.5875 L224.271035,48.2569444 C222.789864,45.4699074 220.538085,43.2303241 217.515696,41.5381944 C214.493308,39.8460648 210.920484,39 206.797226,39 C203.354505,39 200.292085,39.6171296 197.609965,40.8513889 C194.927846,42.0856481 192.646042,43.6981481 190.764556,45.6888889 C188.883069,47.6796296 187.451938,49.9291667 186.471163,52.4375 C185.490388,54.9458333 185,57.4939815 185,60.0819444 C185,62.7893519 185.520411,65.4569444 186.561234,68.0847222 C187.602056,70.7125 189.073219,73.0615741 190.974722,75.1319444 C192.876224,77.2023148 195.138012,78.8645833 197.760084,80.11875 C200.382156,81.3729167 203.274442,82 206.436941,82 Z M247.532275,82 C250.694774,82 253.607076,81.4027778 256.269179,80.2083333 C258.931283,79.0138889 261.223094,77.43125 263.144613,75.4604167 C265.066131,73.4895833 266.567318,71.2201389 267.648172,68.6520833 C268.729026,66.0840278 269.269453,63.4064815 269.269453,60.6194444 C269.269453,57.912037 268.75905,55.2643519 267.738243,52.6763889 C266.717436,50.0884259 265.266289,47.7791667 263.384803,45.7486111 C261.503316,43.7180556 259.241528,42.0856481 256.59944,40.8513889 C253.957352,39.6171296 251.015027,39 247.772465,39 C244.609965,39 241.697664,39.5872685 239.03556,40.7618056 C236.373456,41.9363426 234.071637,43.5090278 232.130103,45.4798611 C230.188568,47.4506944 228.677374,49.7300926 227.59652,52.3180556 C226.515666,54.9060185 225.975239,57.5935185 225.975239,60.3805556 C225.975239,63.1277778 226.49565,65.7953704 227.536473,68.3833333 C228.577295,70.9712963 230.03845,73.2706019 231.919937,75.28125 C233.801424,77.2918981 236.063211,78.9143519 238.705299,80.1486111 C241.347387,81.3828704 244.289712,82 247.532275,82 Z M247.65237,71.6680556 C245.971041,71.6680556 244.519894,71.349537 243.298929,70.7125 C242.077964,70.075463 241.067166,69.2393519 240.266533,68.2041667 C239.4659,67.1689815 238.865426,65.9844907 238.465109,64.6506944 C238.064793,63.3168981 237.864635,61.9333333 237.864635,60.5 C237.864635,59.1064815 238.054785,57.7428241 238.435085,56.4090278 C238.815386,55.0752315 239.405853,53.880787 240.206485,52.8256944 C241.007118,51.7706019 242.017917,50.924537 243.238882,50.2875 C244.459847,49.650463 245.910993,49.3319444 247.592322,49.3319444 C249.233619,49.3319444 250.66475,49.6405093 251.885715,50.2576389 C253.10668,50.8747685 254.127487,51.6909722 254.948135,52.70625 C255.768784,53.7215278 256.379266,54.8960648 256.779583,56.2298611 C257.179899,57.5636574 257.380057,58.9472222 257.380057,60.3805556 C257.380057,61.7740741 257.189907,63.1476852 256.809606,64.5013889 C256.429306,65.8550926 255.848847,67.0594907 255.06823,68.1145833 C254.287613,69.1696759 253.276815,70.0256944 252.035834,70.6826389 C250.794853,71.3395833 249.333698,71.6680556 247.65237,71.6680556 Z M286.105615,81.6416667 L286.105615,60.7986111 L303.038997,81.6416667 L312.346353,81.6416667 L312.346353,39.2388889 L300.637099,39.2388889 L300.637099,60.7986111 L283.523575,39.2388889 L274.396362,39.2388889 L274.396362,81.6416667 L286.105615,81.6416667 Z M350.199124,81.6416667 L350.199124,71.4888889 L331.524366,71.4888889 L331.524366,64.8 L347.016609,64.8 L347.016609,55.3638889 L331.524366,55.3638889 L331.524366,49.3916667 L349.658697,49.3916667 L349.658697,39.2388889 L319.815112,39.2388889 L319.815112,81.6416667 L350.199124,81.6416667 Z M374.240981,82 C376.042404,82 377.893867,81.7810185 379.79537,81.3430556 C381.696873,80.9050926 383.478281,80.2680556 385.139594,79.4319444 C386.800906,78.5958333 388.282077,77.5606481 389.583105,76.3263889 C390.884133,75.0921296 391.854901,73.6986111 392.495407,72.1458333 L392.495407,72.1458333 L382.947862,66.4722222 C382.587577,67.4277778 382.097189,68.2340278 381.476699,68.8909722 C380.856209,69.5479167 380.155655,70.0854167 379.375038,70.5034722 C378.594421,70.9215278 377.78378,71.2201389 376.943116,71.3993056 C376.102452,71.5784722 375.281803,71.6680556 374.481171,71.6680556 C372.959968,71.6680556 371.588885,71.3594907 370.36792,70.7423611 C369.146955,70.1252315 368.11614,69.2990741 367.275476,68.2638889 C366.434812,67.2287037 365.794306,66.0342593 365.353958,64.6805556 C364.91361,63.3268519 364.693436,61.9134259 364.693436,60.4402778 C364.693436,59.1263889 364.883586,57.8025463 365.263886,56.46875 C365.644187,55.1349537 366.224646,53.9405093 367.005263,52.8854167 C367.785879,51.8303241 368.78667,50.9743056 370.007635,50.3173611 C371.2286,49.6604167 372.679747,49.3319444 374.361076,49.3319444 C375.161708,49.3319444 375.992365,49.4115741 376.853045,49.5708333 C377.713725,49.7300926 378.544382,50.0087963 379.345014,50.4069444 C380.145647,50.8050926 380.876224,51.3425926 381.536746,52.0194444 C382.197268,52.6962963 382.727688,53.5523148 383.128004,54.5875 L383.128004,54.5875 L392.075075,48.2569444 C390.593904,45.4699074 388.342124,43.2303241 385.319736,41.5381944 C382.297347,39.8460648 378.724524,39 374.601265,39 C371.158545,39 368.096125,39.6171296 365.414005,40.8513889 C362.731885,42.0856481 360.450082,43.6981481 358.568595,45.6888889 C356.687108,47.6796296 355.255977,49.9291667 354.275202,52.4375 C353.294427,54.9458333 352.80404,57.4939815 352.80404,60.0819444 C352.80404,62.7893519 353.324451,65.4569444 354.365273,68.0847222 C355.406096,70.7125 356.877259,73.0615741 358.778761,75.1319444 C360.680264,77.2023148 362.942051,78.8645833 365.564124,80.11875 C368.186196,81.3729167 371.078481,82 374.240981,82 Z M417.738213,81.6416667 L417.738213,49.3916667 L429.987893,49.3916667 L429.987893,39.2388889 L393.719231,39.2388889 L393.719231,49.3916667 L406.028959,49.3916667 L406.028959,81.6416667 L417.738213,81.6416667 Z M438.657602,81.6416667 L441.179595,73.3402778 L452.528564,73.3402778 L455.110604,81.6416667 L467,81.6416667 L452.228326,39.2388889 L441.53988,39.2388889 L426.708158,81.6416667 L438.657602,81.6416667 Z M450.667093,65.5763889 L442.920971,65.5763889 L446.884103,52.4375 L450.667093,65.5763889 Z" id="CONECTA" fill="#1B1B1F" fill-rule="nonzero"></path>
        <path d="M194.073729,118.847222 C195.612365,118.847222 197.006129,118.5875 198.255022,118.068056 C199.503915,117.548611 200.567972,116.815278 201.447192,115.868056 C202.326413,114.920833 203.000815,113.780093 203.470399,112.445833 C203.939982,111.111574 204.174774,109.619444 204.174774,107.969444 C204.174774,106.482407 203.96496,105.081944 203.545332,103.768056 C203.125704,102.454167 202.496262,101.308333 201.657006,100.330556 C200.81775,99.3527778 199.763685,98.5787037 198.49481,98.0083333 C197.225934,97.437963 195.752241,97.1527778 194.073729,97.1527778 L194.073729,97.1527778 L187,97.1527778 L187,118.847222 L194.073729,118.847222 Z M194.073729,117.441667 L188.528645,117.441667 L188.528645,98.5583333 L194.073729,98.5583333 C195.452507,98.5583333 196.671426,98.7925926 197.730487,99.2611111 C198.789548,99.7296296 199.683756,100.381481 200.413109,101.216667 C201.142462,102.051852 201.696971,103.044907 202.076634,104.195833 C202.456298,105.346759 202.646129,106.60463 202.646129,107.969444 C202.646129,109.313889 202.461293,110.561574 202.091621,111.7125 C201.721949,112.863426 201.177431,113.866667 200.458069,114.722222 C199.738707,115.577778 198.8445,116.244907 197.775447,116.723611 C196.706395,117.202315 195.472489,117.441667 194.073729,117.441667 L194.073729,117.441667 Z M238.44582,118.847222 L238.44582,97.1527778 L236.917175,97.1527778 L236.917175,118.847222 L238.44582,118.847222 Z M281.079452,119 C283.797043,119 286.184926,117.818519 288.243101,115.455556 L288.243101,115.455556 L288.243101,118.847222 L289.561932,118.847222 L289.561932,108.305556 L283.41738,108.305556 L283.41738,109.558333 L288.243101,109.558333 L288.243101,113.744444 C287.164058,115.068519 286.040055,116.036111 284.871091,116.647222 C283.702127,117.258333 282.468221,117.563889 281.169373,117.563889 C279.970435,117.563889 278.851427,117.304167 277.812349,116.784722 C276.77327,116.265278 275.869071,115.567593 275.099753,114.691667 C274.330435,113.815741 273.725971,112.802315 273.286361,111.651389 C272.846751,110.500463 272.626946,109.283333 272.626946,108 C272.626946,106.798148 272.816777,105.626852 273.196441,104.486111 C273.576104,103.34537 274.125617,102.326852 274.844979,101.430556 C275.564342,100.534259 276.433571,99.8111111 277.452667,99.2611111 C278.471764,98.7111111 279.610754,98.4361111 280.869638,98.4361111 C282.36831,98.4361111 283.712118,98.7569444 284.901064,99.3986111 C286.09001,100.040278 287.044164,101.074074 287.763527,102.5 L287.763527,102.5 L289.022411,101.736111 C288.682712,101.043519 288.268079,100.406944 287.778513,99.8263889 C287.288947,99.2458333 286.709461,98.7467593 286.040055,98.3291667 C285.370648,97.9115741 284.611321,97.5856481 283.762074,97.3513889 C282.912827,97.1171296 281.958673,97 280.899612,97 C279.480869,97 278.17203,97.300463 276.973093,97.9013889 C275.774156,98.5023148 274.740072,99.312037 273.870843,100.330556 C273.001613,101.349074 272.322216,102.52037 271.83265,103.844444 C271.343084,105.168519 271.098301,106.543519 271.098301,107.969444 C271.098301,109.334259 271.348079,110.678704 271.847636,112.002778 C272.347194,113.326852 273.036582,114.508333 273.915803,115.547222 C274.795024,116.586111 275.849089,117.421296 277.078,118.052778 C278.30691,118.684259 279.640728,119 281.079452,119 Z M324.132712,118.847222 L324.132712,97.1527778 L322.604068,97.1527778 L322.604068,118.847222 L324.132712,118.847222 Z M365.32762,118.847222 L365.32762,98.5583333 L373.120711,98.5583333 L373.120711,97.1527778 L356.005884,97.1527778 L356.005884,98.5583333 L363.798975,98.5583333 L363.798975,118.847222 L365.32762,118.847222 Z M403.145522,118.847222 L406.112891,111.697222 L416.273883,111.697222 L419.241252,118.847222 L420.859817,118.847222 L411.867789,97.1527778 L410.548958,97.1527778 L401.496983,118.847222 L403.145522,118.847222 Z M415.854255,110.413889 L406.472572,110.413889 L411.208374,99.0472222 L415.854255,110.413889 Z M469,118.694444 L469,117.288889 L456.291267,117.288889 L456.291267,97 L454.762622,97 L454.762622,118.694444 L469,118.694444 Z" id="DIGITAL" fill="#1B1B1F" fill-rule="nonzero"></path>
    </g>
</svg>