<?xml version="1.0" encoding="UTF-8"?>
<svg width="40px" height="40px" viewBox="0 0 40 40" version="1.1" xmlns="http://www.w3.org/2000/svg" xmlns:xlink="http://www.w3.org/1999/xlink">
    <!-- Generator: Sketch 64 (93537) - https://sketch.com -->
    <title>twitter copy</title>
    <desc>Created with Sketch.</desc>
    <g id="Landing" stroke="none" stroke-width="1" fill="none" fill-rule="evenodd">
        <g id="Desktop-Copy-5" transform="translate(-190.000000, -2436.000000)" fill="#0BCDB5" fill-rule="nonzero">
            <g id="Gratis-Copy-4" transform="translate(0.000000, 1831.000000)">
                <g id="Gratis-Copy-6" transform="translate(110.000000, 530.000000)">
                    <g id="twitter-copy" transform="translate(80.000000, 75.000000)">
                        <path d="M37.1151734,-2.22044605e-15 L2.88482664,-2.22044605e-15 C1.29150391,-2.22044605e-15 2.22044605e-15,1.29150391 2.22044605e-15,2.88482664 L2.22044605e-15,37.1151734 C2.22044605e-15,38.7084961 1.29150391,40 2.88482664,40 L37.1151734,40 C38.7084961,40 40,38.7084961 40,37.1151734 L40,2.88482664 C40,1.29150391 38.7084961,-2.22044605e-15 37.1151734,-2.22044605e-15 Z M29.1317749,15.593872 C29.140625,15.7907105 29.1448975,15.9884644 29.1448975,16.1871337 C29.1448975,22.2531128 24.5275879,29.2480469 16.0836792,29.248352 L16.0839844,29.248352 L16.0836792,29.248352 C13.4912109,29.248352 11.0787964,28.4884644 9.04724125,27.1862793 C9.40643313,27.2286987 9.77203367,27.2497559 10.1422119,27.2497559 C12.2930908,27.2497559 14.2724609,26.5161133 15.843811,25.284729 C13.8342285,25.2474976 12.1398926,23.9202881 11.5551758,22.0962524 C11.835022,22.1499634 12.1228027,22.1792602 12.4179077,22.1792602 C12.8369141,22.1792602 13.2427978,22.1228027 13.62854,22.0175171 C11.5280152,21.5969848 9.94567875,19.7406006 9.94567875,17.5177002 C9.94567875,17.4969483 9.94567875,17.4783325 9.94628906,17.4591064 C10.5648804,17.8030395 11.2722778,18.0099487 12.0254516,18.0331421 C10.7928467,17.2106934 9.982605,15.8047485 9.982605,14.2120361 C9.982605,13.3709717 10.2099609,12.5830078 10.604248,11.904602 C12.868042,14.682312 16.2512207,16.5090942 20.0665283,16.7010498 C19.987793,16.3647461 19.9472046,16.0144043 19.9472046,15.6542969 C19.9472046,13.1201172 22.0031738,11.064148 24.5382691,11.064148 C25.8587647,11.064148 27.0513916,11.6223145 27.8890991,12.5146484 C28.9349366,12.3083496 29.9169922,11.9262695 30.8041382,11.4004516 C30.4608155,12.4719238 29.7332764,13.3709717 28.7854004,13.9395141 C29.7140503,13.8284302 30.5990601,13.5821533 31.4215088,13.2165527 C30.8071899,14.137268 30.0280762,14.9459839 29.1317749,15.593872 L29.1317749,15.593872 Z" id="Shape"></path>
                    </g>
                </g>
            </g>
        </g>
    </g>
</svg>