<?xml version="1.0" encoding="UTF-8"?>
<svg width="160px" height="80px" viewBox="0 0 160 80" version="1.1" xmlns="http://www.w3.org/2000/svg" xmlns:xlink="http://www.w3.org/1999/xlink">
    <!-- Generator: Sketch 64 (93537) - https://sketch.com -->
    <title>typeform_logo</title>
    <desc>Created with Sketch.</desc>
    <g id="typeform_logo" stroke="none" stroke-width="1" fill="none" fill-rule="evenodd">
        <g id="Typeform_Logo-Copy" transform="translate(26.000000, 5.000000)">
            <path d="M63.1040118,49.4944788 C60.6116891,55.2315246 57.9076365,59.6057606 54.1380156,63.203439 C49.9449351,67.2354041 44.9602896,69.3754685 39.2463526,69.8717962 C34.5357103,70.2747138 29.9468473,69.7170423 25.4188739,68.3521413 C20.7981823,66.9872402 16.6037179,64.8471758 12.9572601,61.5903741 C9.94875948,58.8612691 7.63910557,55.6044674 5.84562956,51.9447481 C3.07999545,46.3310872 1.22632175,40.4378934 0.375250961,34.2038229 C-0.171371743,30.1718578 -0.201816552,26.1705646 0.831923093,22.2313125 C1.80408119,18.4475112 3.77953413,15.2841195 6.51472343,12.5856864 C9.218776,9.91792531 12.3490559,7.87127084 15.6917575,6.16549308 C20.829319,3.59114193 26.2083632,1.66787228 31.8614106,0.64454504 C35.9036509,-0.099946438 39.9458912,-0.286069308 44.0185763,0.550437971 C47.847011,1.3576675 51.129515,3.18752717 53.9864835,5.88596023 C57.0863186,8.80188519 59.3959725,12.3061536 61.2793991,16.1213239 C63.4382128,20.5255347 64.9576855,25.1472374 65.6565323,30.0477759 C66.3249342,34.9169453 66.0211781,39.7233767 64.7155109,44.4705556 C64.1066147,46.51721 63.407768,48.4718487 63.1033199,49.4944788 L63.1040118,49.4944788 Z" id="Path" stroke="#FFFFFF"></path>
            <path d="M33,29.8684418 L33,28.1462487 L42.5115761,28.1462487 L42.5115761,29.8684418 L38.7194792,29.8684418 L38.7194792,39.6730063 L36.8227345,39.6730063 L36.8227345,29.8684418 L33,29.8684418 Z M58.4765408,39.7890871 C57.4668933,39.7890871 56.5797961,39.3221406 56.1508699,38.7397692 L56.1508699,42.9993442 L54.3474305,42.9993442 L54.3474305,31.3565058 L56.1508699,31.3565058 L56.1508699,32.319255 C56.4885796,31.7650839 57.4668933,31.2397692 58.5064821,31.2397692 C61.0459197,31.2397692 62.3918843,32.8137461 62.3918843,35.4993442 C62.3918843,38.1554302 61.0152821,39.7884313 58.4772371,39.7884313 L58.4765408,39.7890871 Z M60.4944433,35.5 C60.4944433,34.6539874 60.2806765,33.9824239 59.8830843,33.4866212 C59.4548545,32.9901626 58.9347119,32.7278332 58.2927153,32.7278332 C57.6507188,32.7278332 57.0999386,32.9613064 56.7023464,33.4866212 C56.2741166,33.9824239 56.0909874,34.6539874 56.0909874,35.5 C56.0909874,36.3460126 56.3047541,37.0169203 56.7023464,37.5133788 C57.1305762,38.0091815 57.6507188,38.2426548 58.2927153,38.2426548 C58.9347119,38.2426548 59.485492,38.0091815 59.8830843,37.5133788 C60.2799802,37.0169203 60.4944433,36.3460126 60.4944433,35.5 L60.4944433,35.5 Z M71.9932843,35.9951469 L65.8469679,35.9951469 C65.8469679,37.3087618 66.6421523,38.2721668 67.9881169,38.2721668 C68.9664306,38.2721668 69.8228902,37.7475079 70.25112,36.8713274 L71.7802138,37.4550105 C70.8931166,39.0880115 69.8841654,39.7897429 67.9574794,39.7897429 C65.0817246,39.7897429 63.9202818,37.4838667 63.9202818,35.5288562 C63.9202818,33.5443337 65.1130585,31.2679696 67.9574794,31.2679696 C70.740625,31.2679696 71.963343,33.4275971 71.963343,35.2658709 L71.963343,35.9938353 L71.9932843,35.9938353 L71.9932843,35.9951469 Z M65.8776054,34.5654512 L70.0972358,34.5654512 C69.9454406,33.5449895 69.2108349,32.7566894 67.9874206,32.7566894 C66.8559191,32.7566894 66.0913722,33.4866212 65.8776054,34.5667629 L65.8776054,34.5654512 Z M73.4624955,32.873426 L73.4624955,31.3565058 L74.5939971,31.3565058 L74.5939971,30.9184155 C74.5939971,28.9627492 75.6941648,28 77.4989968,28 C78.0804145,28 78.5392819,28.0872246 78.9368741,28.2918416 L78.5699195,29.7510493 C78.2635437,29.6048006 77.9272266,29.5175761 77.5602719,29.5175761 C76.795725,29.5175761 76.3974365,29.9550105 76.3974365,30.8305352 L76.3974365,31.3847062 L78.3248188,31.3847062 L78.3248188,32.9029381 L76.3981328,32.9029381 L76.3981328,39.6723505 L74.5946934,39.6723505 L74.5946934,32.9029381 L73.4624955,32.9029381 L73.4624955,32.873426 L73.4624955,32.873426 Z M79.457713,35.5 C79.457713,34.3037775 79.8239713,33.2820042 80.6191558,32.4648478 C81.3837027,31.6483473 82.4539291,31.2397692 83.7386186,31.2397692 C85.0226117,31.2397692 86.0628968,31.6476915 86.8274437,32.464192 C87.5919906,33.2813484 87.9902792,34.3031217 87.9902792,35.4993442 C87.9902792,36.6955666 87.5919906,37.7160283 86.8274437,38.5338405 C86.0628968,39.3509969 85.0226117,39.7602308 83.7386186,39.7602308 C82.4539291,39.7602308 81.3837027,39.3509969 80.6191558,38.5338405 C79.8546089,37.746852 79.4563204,36.7250787 79.4563204,35.4993442 L79.457713,35.5 Z M81.3530651,35.5 C81.3530651,36.258788 81.5668319,36.9001836 81.9644241,37.4543547 C82.3926539,38.0091815 82.9740717,38.2721668 83.707981,38.2721668 C84.4418903,38.2721668 85.0226117,38.0098374 85.4508415,37.4550105 C85.8790713,36.9001836 86.0935344,36.258788 86.0935344,35.5006558 C86.0935344,34.741212 85.8790713,34.0991605 85.4508415,33.5738458 C85.0226117,33.0196747 84.441194,32.7566894 83.707981,32.7566894 C82.9740717,32.7566894 82.3919576,33.048531 81.9644241,33.5738458 C81.5675282,34.1286726 81.3530651,34.7700682 81.3530651,35.5 L81.3530651,35.5 Z M91.5066378,39.6434942 L89.7031984,39.6434942 L89.7031984,31.3565058 L91.5066378,31.3565058 L91.5066378,32.7271773 C92.0880556,31.7650839 93.0970068,31.2102571 94.0760167,31.2102571 C94.4729127,31.2102571 94.8405636,31.2692812 95.1761844,31.4148741 L94.8712012,32.9901626 C94.595463,32.8150577 94.2584496,32.7566894 93.8615537,32.7566894 C93.2195571,32.7566894 92.668777,33.078043 92.2099096,33.7489507 C91.7503459,34.4205142 91.5066378,35.3537513 91.5066378,36.5794858 L91.5066378,39.6441501 L91.5066378,39.6434942 Z M97.011654,31.3565058 L98.816486,31.3565058 L98.816486,32.7566894 C99.5197578,31.7355719 100.376217,31.2102571 101.446444,31.2102571 C102.607887,31.2102571 103.5862,31.8818206 103.831301,32.9317943 C104.44266,31.8234523 105.42167,31.2096013 106.522534,31.2096013 C108.082265,31.2096013 109,32.2018625 109,33.6899265 L109,39.6133263 L107.195168,39.6133263 L107.195168,34.0696485 C107.195168,33.1941238 106.706359,32.7271773 105.911175,32.7271773 C104.778977,32.7271773 103.89188,34.1280168 103.89188,36.3165005 L103.89188,39.6434942 L102.08844,39.6434942 L102.08844,34.0998164 C102.08844,33.2236359 101.598935,32.7566894 100.803751,32.7566894 C99.6409155,32.7566894 98.7844558,34.1575289 98.7844558,36.5211175 L98.7844558,39.6723505 L96.9810164,39.6723505 L96.9810164,31.3565058 L97.0109577,31.3565058 L97.011654,31.3565058 Z M52.6957864,31.3565058 L50.6166088,31.3565058 L47.650334,37.4254984 L44.866492,31.3571616 L42.8179519,31.3571616 L46.6100488,39.6139822 L44.9584047,43 L47.0375823,43 L52.6957864,31.3571616 L52.6957864,31.3565058 Z" id="Shape" fill="#FFFFFF" fill-rule="nonzero"></path>
        </g>
    </g>
</svg>